<svg version="1.1" id="Layer_1" xmlns="http://www.w3.org/2000/svg" xmlns:xlink="http://www.w3.org/1999/xlink" x="0px" y="0px"
	 width="100%" viewBox="0 0 1920 1080" enable-background="new 0 0 1920 1080" xml:space="preserve">
<path fill="#000000" opacity="1.000000" stroke="none" 
	d="
M1254.000000,1081.000000 
	C837.500061,1081.000000 421.500153,1080.994141 5.500245,1081.092896 
	C1.751745,1081.093872 0.905860,1080.250000 0.906910,1076.500244 
	C1.006863,719.500305 1.006853,362.500366 0.907029,5.500443 
	C0.905981,1.752356 1.749546,0.906618 5.499596,0.907187 
	C642.499451,1.003863 1279.499390,1.003851 1916.499268,0.907399 
	C1920.246460,0.906831 1921.094238,1.748309 1921.093140,5.499265 
	C1920.993164,362.499176 1920.993042,719.499084 1921.092773,1076.499023 
	C1921.093750,1080.245605 1920.252686,1081.095337 1916.500977,1081.093506 
	C1695.833984,1080.988770 1475.166992,1081.000000 1254.000000,1081.000000 
z"/>
<path fill="#F0E6CF" opacity="1.000000" stroke="none" 
	d="
M772.820435,379.261902 
	C773.012085,379.118042 773.391724,378.959503 773.597412,378.960205 
	C774.125610,378.785736 774.419495,378.571198 774.815735,378.076355 
	C774.947144,377.835754 774.953003,377.933319 774.904785,377.925232 
	C775.398987,377.619598 776.012878,377.526825 776.770752,377.070923 
	C776.956909,376.828461 776.965210,376.956177 776.901306,376.952759 
	C777.161987,376.790863 777.447571,376.580475 777.815796,376.073792 
	C777.943359,375.837280 777.950134,375.932587 777.903015,375.924652 
	C778.398987,375.618958 779.017090,375.529114 779.769897,375.051239 
	C780.442749,374.292938 780.928589,373.777496 781.671753,373.161255 
	C782.181641,372.862854 782.414368,372.644196 782.819763,372.261353 
	C783.012146,372.118164 783.389832,371.959381 783.594666,371.958740 
	C784.093201,371.813751 784.364197,371.634949 784.805664,371.272644 
	C786.046143,370.398895 787.093384,369.674103 788.471680,368.954468 
	C789.126038,368.785095 789.420227,368.570709 789.816040,368.075012 
	C789.946899,367.833954 789.953247,367.947021 789.896973,367.940613 
	C790.152283,367.830933 790.414978,367.654785 790.820435,367.261902 
	C791.433838,366.781952 791.855530,366.445862 792.541626,366.031982 
	C793.715393,365.154449 795.097229,364.920044 795.783081,363.381287 
	C795.973267,363.137390 796.399170,362.982025 796.625122,362.963501 
	C802.432312,359.083313 808.273987,355.606750 813.765991,351.616486 
	C831.456604,338.763275 848.063782,324.729645 861.761292,307.079224 
	C862.012939,306.551331 862.126770,306.345825 862.438721,305.848236 
	C863.057068,304.984314 863.561279,304.472168 864.050232,303.496704 
	C873.196289,292.414795 881.350952,281.057800 888.113647,268.806549 
	C899.635132,247.934494 909.115295,226.221970 915.404175,203.101791 
	C920.435486,184.605194 924.453003,165.965302 926.778809,146.951233 
	C927.045654,144.770218 928.050537,142.822693 928.788696,140.392303 
	C929.502563,138.626083 929.692139,137.157852 929.573853,135.270721 
	C929.419373,131.722076 930.223328,128.407471 927.999329,125.159920 
	C928.328125,121.803291 930.447571,120.297241 933.092163,120.654099 
	C935.913696,121.034843 936.067749,123.852654 936.314758,126.191513 
	C936.437378,127.353294 936.422180,128.544495 936.155334,129.677475 
	C932.878113,143.595276 932.074524,157.910385 929.021545,171.905640 
	C925.720215,187.039490 921.937866,201.999283 917.270203,216.739700 
	C907.012024,249.134918 892.089050,279.152771 870.382996,305.451019 
	C852.913147,326.616882 832.966248,345.161591 810.028870,360.430939 
	C780.356201,380.183929 750.351624,399.481903 722.435364,421.740265 
	C697.466431,441.648682 674.423645,463.570984 655.522766,489.406708 
	C641.603333,508.433258 630.569885,529.117554 622.603882,551.443542 
	C616.190735,569.417664 611.754089,587.861450 609.096680,606.650940 
	C607.684753,616.634277 606.430054,626.712097 606.232300,636.927551 
	C605.993958,649.234131 605.361877,661.541565 605.436768,673.863708 
	C605.482971,681.471558 605.537231,681.556458 613.350891,681.557251 
	C671.840332,681.563354 730.329834,681.557190 788.819275,681.570435 
	C791.478210,681.571045 794.155823,681.344421 797.172852,682.114441 
	C797.779480,682.436035 798.000916,682.603760 798.414551,683.142456 
	C798.726929,684.070679 798.691650,684.617981 798.256836,685.494202 
	C796.608765,685.883911 795.204712,685.934753 793.385071,685.910095 
	C790.898132,685.124878 788.769165,685.617126 786.349854,685.687500 
	C785.852051,685.894897 785.672241,685.947266 785.223267,685.919189 
	C784.205078,685.349243 783.378052,685.505005 782.290100,685.691467 
	C781.559143,685.887878 781.102539,685.942810 780.308655,685.913940 
	C778.220947,685.151917 776.408813,685.598083 774.315918,685.675903 
	C770.295654,685.880920 766.584106,685.947144 762.413940,685.938599 
	C758.917053,685.079468 755.830139,685.641052 752.407776,685.671387 
	C749.324097,685.863220 746.600037,685.915649 743.427856,685.892456 
	C741.229614,685.168579 739.423523,685.589844 737.345459,685.697998 
	C736.578918,685.907227 736.109131,685.955750 735.290588,685.931763 
	C733.213257,685.115662 731.409241,685.615173 729.344482,685.698120 
	C726.307739,685.909546 723.566772,685.960449 720.374146,685.931885 
	C715.248352,685.047058 710.540344,685.670166 705.444946,685.608643 
	C704.856384,685.680969 704.673584,685.663147 704.217163,685.676453 
	C698.920410,685.229858 693.886902,685.585388 688.449036,685.608582 
	C687.856750,685.680908 687.674133,685.662842 687.217896,685.675964 
	C685.516541,685.307983 684.064819,685.523254 682.342834,685.677673 
	C676.671997,685.868225 671.279236,685.919922 665.420471,685.900391 
	C663.213501,685.151062 661.410522,685.599243 659.333496,685.685120 
	C641.048523,685.901245 623.065063,685.901245 605.083435,686.085205 
	C600.705811,686.130005 600.921265,683.214966 600.978394,680.471680 
	C601.354736,662.389709 600.300110,644.305908 601.896606,626.210938 
	C602.817505,615.774414 604.130798,605.414307 606.088257,595.179871 
	C608.178162,584.252625 610.964172,573.427856 614.021973,562.722778 
	C620.219604,541.025452 628.913574,520.272278 641.345581,501.442383 
	C649.827454,488.595581 658.886597,476.084778 669.484070,464.694702 
	C679.637817,453.781586 690.579773,443.806854 701.483459,433.706879 
	C712.149597,423.826904 723.949219,415.464935 735.209778,406.382324 
	C746.439514,397.324524 758.521057,389.493347 770.456604,380.957855 
	C771.129456,380.784454 771.421570,380.568604 771.816284,380.074646 
	C771.946594,379.834137 771.953125,379.947052 771.896912,379.940613 
	C772.152283,379.830933 772.414978,379.654785 772.820435,379.261902 
z"/>
<path fill="#F0E6CF" opacity="1.000000" stroke="none" 
	d="
M812.821655,129.327759 
	C822.131226,124.395996 830.813599,118.915771 839.749634,113.910164 
	C850.174255,108.070663 860.265076,101.646484 871.036438,96.365799 
	C878.915649,92.502998 885.941589,86.921585 893.753540,82.892792 
	C900.334717,79.498718 906.540161,75.518723 913.001953,71.957909 
	C920.507446,67.821899 927.967896,63.601143 934.996765,58.669678 
	C936.678223,57.490040 938.708374,56.772102 940.522339,56.102688 
	C947.750732,53.435249 952.548889,46.577957 960.675354,45.034828 
	C961.834839,45.534241 962.440125,46.085045 962.388245,47.463913 
	C959.220215,51.572983 954.807312,53.342937 950.813477,55.655281 
	C914.083313,76.921318 877.369751,98.216812 840.526611,119.286560 
	C829.834045,125.401337 819.339050,131.869217 808.469177,137.658005 
	C803.873596,140.105362 802.389709,143.401978 802.401428,148.497696 
	C802.539368,208.595657 802.446716,268.694122 802.586426,328.792084 
	C802.596191,332.994690 800.870544,337.364807 803.483276,341.763672 
	C803.942688,342.266937 804.106262,342.485870 804.400024,343.092468 
	C803.736755,346.672424 801.985840,348.049408 798.431091,346.265808 
	C798.093323,339.157532 797.996216,332.330353 797.994812,325.503143 
	C797.982483,264.689911 798.007385,203.876648 797.937927,143.063507 
	C797.933533,139.250168 798.281982,136.355331 802.875793,135.500778 
	C805.702393,134.974976 807.108948,131.567795 810.490234,130.963989 
	C811.527893,130.585480 812.244812,130.272995 812.821655,129.327759 
z"/>
<path fill="#F8F7F5" opacity="1.000000" stroke="none" 
	d="
M1126.395752,336.968567 
	C1126.629639,345.798004 1129.508545,354.264191 1130.064941,363.456970 
	C1128.734741,365.534332 1127.030273,364.974670 1125.011475,364.503754 
	C1124.443848,364.336395 1124.218750,364.268585 1123.672241,364.064423 
	C1122.944580,363.716187 1122.549683,363.484955 1121.880981,363.059631 
	C1121.024780,362.538177 1120.431519,362.233765 1119.517822,361.802124 
	C1119.023804,361.512177 1118.835815,361.376617 1118.410889,360.983215 
	C1112.192383,354.633362 1104.677246,350.538727 1098.049438,345.283386 
	C1085.365967,335.226318 1073.670044,324.169006 1063.337158,311.694702 
	C1062.281250,310.419891 1061.110474,309.153992 1061.656250,306.928162 
	C1064.191162,303.917969 1067.453247,303.550568 1071.079834,303.187378 
	C1074.212402,303.620239 1076.240234,305.110901 1078.053589,307.233307 
	C1087.901367,318.758606 1099.391602,328.476746 1111.681763,337.270111 
	C1114.904541,339.576019 1117.672485,342.490875 1121.341064,344.219574 
	C1123.246094,345.117218 1124.555054,345.670990 1124.264160,342.377075 
	C1124.056763,341.329590 1124.041626,340.620575 1124.192627,339.554749 
	C1124.604614,338.261719 1125.127930,337.469971 1126.395752,336.968567 
z"/>
<path fill="#83B0CE" opacity="1.000000" stroke="none" 
	d="
M798.471680,685.918823 
	C798.024719,685.489380 798.036560,685.145691 798.061157,684.544312 
	C799.770264,682.054260 802.260681,682.563416 804.522217,682.526794 
	C816.512878,682.332275 828.506287,682.772522 840.495911,682.474792 
	C847.715515,682.295532 848.486755,681.455627 848.489929,674.230896 
	C848.507263,635.252930 848.684875,596.273254 848.341064,557.298279 
	C848.272461,549.525024 848.326538,541.712646 847.869568,533.930542 
	C847.735596,531.649170 848.009338,529.459778 850.375305,528.437683 
	C852.955322,527.323059 854.942993,528.585449 856.398071,530.637390 
	C869.343872,548.894592 886.040039,563.427856 903.114441,577.553894 
	C915.748108,588.005981 929.555969,596.922485 944.445129,603.560364 
	C955.795593,608.620544 968.075928,608.541626 979.739868,602.783875 
	C985.680664,599.851196 991.089111,595.767212 998.165466,594.474060 
	C998.798218,594.765930 999.013855,594.954651 999.165466,595.568359 
	C997.113403,599.238525 993.354919,599.962463 990.571838,602.026855 
	C978.812805,610.749817 965.413818,612.618835 951.564758,610.785950 
	C944.941162,609.909302 938.789917,606.254333 932.788818,603.020996 
	C922.765137,597.620300 913.195251,591.321289 904.292358,584.399170 
	C892.475281,575.211426 881.053772,565.435303 871.076965,554.002014 
	C866.083557,548.279663 860.191711,543.273438 855.258606,537.349426 
	C854.250061,536.138367 854.765747,533.987305 851.973755,533.531982 
	C851.973755,541.079529 851.971191,548.555908 851.974304,556.032349 
	C851.991394,597.014771 851.946899,637.997375 852.105591,678.979248 
	C852.125977,684.236328 850.995728,686.221741 844.963867,686.113159 
	C829.623718,685.836975 814.275513,686.010803 798.471680,685.918823 
z"/>
<path fill="#F8F7F5" opacity="1.000000" stroke="none" 
	d="
M798.071045,346.427429 
	C800.342041,347.064331 801.980042,345.831146 803.838745,344.434357 
	C806.098694,340.614960 810.842651,340.107758 813.105591,336.247009 
	C813.491943,335.847778 813.658142,335.703064 814.100586,335.386810 
	C815.546448,334.737610 816.611572,334.117035 817.574585,332.816895 
	C817.984192,332.467651 818.163330,332.343964 818.631348,332.063477 
	C820.838074,331.172180 822.241638,329.731995 823.959473,328.152588 
	C824.358887,327.742584 824.526123,327.584503 824.962646,327.207947 
	C833.365417,321.446838 839.668579,313.955536 846.680115,306.728394 
	C847.010010,306.256866 847.153015,306.076294 847.533813,305.645599 
	C848.648987,304.656494 849.481812,303.840668 851.037964,303.791321 
	C854.637207,306.489075 857.868713,309.281189 862.539429,305.824646 
	C863.333618,307.727905 862.392883,308.968201 861.257202,310.314087 
	C844.857788,329.748535 825.342529,345.596405 804.359314,359.736847 
	C802.332336,361.102814 799.834290,361.769684 797.202942,362.853027 
	C795.394897,359.715790 803.646240,360.322266 799.586609,356.212799 
	C796.771362,353.363068 798.495056,349.980591 798.071045,346.427429 
z"/>
<path fill="#F0E6CF" opacity="1.000000" stroke="none" 
	d="
M1123.315552,363.890686 
	C1125.418091,362.734650 1127.252563,364.441254 1129.678223,363.931274 
	C1130.106934,363.887573 1130.035889,363.914093 1130.042480,363.876770 
	C1130.197510,364.170074 1130.406982,364.454651 1130.920166,364.820312 
	C1131.153076,364.954834 1131.032837,364.963013 1131.035645,364.902863 
	C1131.204224,365.171814 1131.431885,365.450378 1131.957275,365.816528 
	C1142.800659,373.353394 1153.611572,380.481995 1163.938477,388.253815 
	C1170.007080,392.820923 1176.414673,396.903595 1182.477783,401.490509 
	C1188.121460,405.760101 1194.120605,409.711792 1199.559448,414.249603 
	C1210.149048,423.084930 1220.859131,431.770844 1231.044556,441.123474 
	C1238.496460,447.966248 1245.771851,455.026672 1252.544189,462.415253 
	C1264.119873,475.044159 1275.334351,488.241302 1283.587280,503.339417 
	C1290.227173,515.486694 1297.643921,527.259888 1302.277466,540.551880 
	C1304.788086,547.753723 1307.237183,555.028259 1309.922119,562.551392 
	C1307.770874,564.209473 1307.279175,562.449524 1306.639160,561.190918 
	C1305.740845,559.424988 1305.386841,557.427429 1304.168213,555.413330 
	C1299.460083,548.585205 1297.842407,540.782959 1294.595947,533.677429 
	C1283.068115,508.446106 1267.767456,485.863678 1249.157349,465.329407 
	C1228.461548,442.493744 1204.727905,423.257019 1179.957397,405.150940 
	C1163.008545,392.762085 1145.645630,380.987030 1128.044800,369.551422 
	C1126.025879,368.239655 1123.455322,367.259460 1123.315552,363.890686 
z"/>
<path fill="#F4E0B5" opacity="1.000000" stroke="none" 
	d="
M1015.829712,75.880226 
	C1028.168945,81.379662 1039.115234,88.934135 1050.863647,94.944351 
	C1057.090088,98.129631 1062.929443,101.997055 1069.039917,105.317474 
	C1075.282593,108.709732 1082.100098,111.503075 1087.620361,116.187996 
	C1091.298584,119.309563 1096.197510,120.128197 1099.864868,123.008812 
	C1105.736206,127.620605 1113.409180,129.113602 1118.868164,134.307755 
	C1120.925293,136.265274 1126.151123,134.962631 1125.070190,140.628357 
	C1126.991089,148.265396 1125.557007,155.622559 1125.916748,163.331238 
	C1123.208374,165.889420 1122.238403,165.620148 1121.838867,162.189362 
	C1121.300293,157.563736 1121.383545,152.868134 1121.708008,148.244492 
	C1122.070312,143.078796 1120.053223,140.178040 1115.530029,137.587921 
	C1092.603271,124.459412 1069.617188,111.431412 1046.838745,98.040596 
	C1036.533325,91.982407 1026.296875,85.775696 1015.718628,80.175819 
	C1013.770020,79.144272 1011.178589,78.411385 1011.852661,74.963127 
	C1012.851624,74.244453 1013.627258,74.298073 1014.778564,74.724579 
	C1015.146179,74.890160 1015.033997,74.959763 1015.071777,74.905655 
	C1015.236145,75.208420 1015.381958,75.557175 1015.829712,75.880226 
z"/>
<path fill="#83B0CE" opacity="1.000000" stroke="none" 
	d="
M1124.292236,685.428345 
	C1112.182251,686.499451 1100.201904,685.217957 1088.268066,686.597839 
	C1086.845703,686.762268 1085.342896,686.228699 1083.475586,686.041443 
	C1080.634644,686.909607 1078.123901,686.341492 1075.225586,686.233398 
	C1070.728149,686.073914 1070.106689,683.457825 1070.116821,680.156189 
	C1070.187012,657.333435 1070.247192,634.510559 1070.237183,611.687683 
	C1070.225952,586.369873 1070.136841,561.052063 1069.903564,535.283569 
	C1069.139893,533.978821 1069.063721,533.043579 1069.474365,531.619873 
	C1072.323975,528.349731 1073.744019,529.649597 1074.013794,532.749268 
	C1074.286987,535.889343 1073.654785,539.053406 1073.656494,542.225891 
	C1073.679443,585.721130 1073.671875,629.216309 1073.674438,672.711548 
	C1073.674561,673.878052 1073.753906,675.047607 1073.710083,676.209900 
	C1073.554321,680.341980 1075.468506,681.897339 1079.623291,682.420288 
	C1090.300903,683.764343 1100.907471,681.653870 1111.546875,682.303467 
	C1114.702393,682.496094 1117.878540,682.228760 1121.505981,682.568237 
	C1122.271851,682.734680 1122.571167,682.828064 1123.279419,683.150879 
	C1124.192139,683.801575 1124.450439,684.340210 1124.292236,685.428345 
z"/>
<path fill="#F0E6CF" opacity="1.000000" stroke="none" 
	d="
M1124.577271,685.930664 
	C1124.095459,685.478760 1124.066895,685.097961 1124.039307,684.430908 
	C1126.437500,681.626953 1129.592529,682.322632 1132.487549,682.316589 
	C1159.021851,682.260803 1185.556274,682.262939 1212.566406,682.302002 
	C1214.265503,682.441650 1215.486084,682.615417 1217.166016,682.544556 
	C1219.348145,682.374634 1221.089844,682.565613 1223.260742,682.466431 
	C1223.980225,682.467529 1224.267822,682.480225 1224.987549,682.463501 
	C1228.025757,682.470825 1230.631836,682.515015 1233.684082,682.462280 
	C1234.736206,682.514709 1235.341187,682.499817 1236.410889,682.383057 
	C1261.874268,682.278137 1286.871704,682.291016 1312.334229,682.325500 
	C1313.706909,682.343872 1314.595703,682.571289 1315.942749,682.570435 
	C1316.961182,682.539734 1317.540405,682.555969 1318.544434,682.682983 
	C1319.533936,682.875916 1320.060547,683.094788 1320.839355,683.716919 
	C1320.061523,688.264404 1315.634888,686.724915 1313.927002,686.681213 
	C1250.963257,685.068604 1187.992554,686.487610 1124.577271,685.930664 
z"/>
<path fill="#F4E0B5" opacity="1.000000" stroke="none" 
	d="
M1321.505249,683.813171 
	C1320.665894,684.032104 1320.203369,684.032166 1319.394531,684.019043 
	C1318.431152,682.959534 1318.334106,681.804321 1318.354248,680.628906 
	C1318.644287,663.655945 1318.612671,646.677002 1317.359619,629.747498 
	C1315.685181,607.123535 1312.018921,584.824707 1305.208984,563.116333 
	C1304.370117,560.442322 1303.134644,557.789429 1304.443604,554.498047 
	C1307.634766,556.277832 1306.444824,560.547668 1309.501953,562.875122 
	C1312.607910,569.441467 1313.207031,576.531677 1315.370361,583.234070 
	C1317.086060,588.549744 1317.121582,594.394836 1318.046143,599.981079 
	C1322.414917,626.376526 1322.179199,652.997498 1322.023315,679.615967 
	C1322.015503,680.942322 1321.931030,682.268188 1321.505249,683.813171 
z"/>
<path fill="#F8F7F5" opacity="1.000000" stroke="none" 
	d="
M1124.429565,165.683258 
	C1124.856079,157.514282 1124.983643,149.736404 1125.124268,141.495117 
	C1128.511353,141.071640 1126.893188,143.716278 1126.908325,145.015457 
	C1127.056396,157.705933 1126.991699,170.398880 1126.923096,183.557434 
	C1126.614746,184.421921 1126.500244,184.852417 1126.684570,185.628937 
	C1126.891357,220.977646 1126.948486,256.017639 1126.937500,291.521179 
	C1126.400879,292.375702 1125.869751,292.500305 1124.926758,292.109375 
	C1123.132202,289.483093 1123.587891,286.898499 1123.809570,283.922455 
	C1124.297852,282.096771 1124.274170,280.701599 1123.706299,278.863464 
	C1123.101685,274.597656 1123.294189,270.760315 1123.292236,266.931885 
	C1123.277344,236.108658 1123.273438,205.285431 1123.299316,174.462219 
	C1123.301636,171.649353 1122.962402,168.780899 1124.429565,165.683258 
z"/>
<path fill="#F4E0B5" opacity="1.000000" stroke="none" 
	d="
M962.186035,47.119545 
	C961.734680,46.394291 961.492859,45.973442 961.154785,45.330589 
	C962.103638,45.068832 963.148743,45.029076 964.583374,45.053001 
	C965.243042,45.315525 965.512817,45.515106 966.006348,45.829224 
	C966.230835,45.942833 966.597229,45.953144 966.764160,46.028912 
	C967.210205,46.272453 967.466675,46.469654 967.916321,46.807854 
	C968.132141,46.919430 968.048706,46.940392 968.048706,46.897381 
	C968.391785,47.446392 969.014343,47.498890 969.864990,47.764542 
	C970.144348,47.878670 970.011353,47.974316 970.066650,47.913872 
	C970.242432,48.213573 970.387268,48.563656 970.839050,48.880310 
	C971.691895,48.974102 972.262390,49.091080 972.945190,49.481449 
	C973.703674,50.687798 974.715210,51.125473 975.946289,51.805107 
	C976.647217,52.273651 977.051941,52.604023 977.709106,53.029873 
	C979.226135,55.234684 981.744202,55.341774 983.839233,56.748726 
	C984.145081,56.884174 984.053894,56.908215 984.056152,56.861099 
	C984.395264,57.473896 985.069214,57.497780 985.954529,57.804810 
	C986.781799,58.039444 987.320984,58.135654 987.958618,58.495865 
	C988.579224,59.835522 989.644897,60.173840 990.902954,60.792484 
	C991.522400,60.951927 991.773010,61.098328 991.993835,61.600258 
	C993.023499,62.845177 994.565857,62.770927 995.930908,63.796501 
	C997.285828,64.575157 998.330750,65.207016 999.666809,65.965485 
	C1000.848755,66.582466 1001.675537,67.180969 1002.863342,67.762672 
	C1003.145264,67.879379 1003.060303,67.925522 1003.068726,67.877930 
	C1003.217834,68.161621 1003.418823,68.449776 1003.929199,68.806976 
	C1004.168152,68.926384 1004.043701,68.936234 1004.049072,68.874046 
	C1004.388916,69.461617 1005.048950,69.499153 1005.925781,69.802628 
	C1007.796631,69.582779 1008.079468,70.719467 1008.689453,71.981506 
	C1009.377014,72.512291 1009.526978,72.972610 1009.279907,73.845612 
	C1007.561829,75.114670 1006.268494,74.308075 1004.940369,73.595238 
	C992.083496,66.694748 979.550293,59.230244 966.994568,51.806011 
	C965.143799,50.711647 963.283875,49.559818 962.186035,47.119545 
z"/>
<path fill="#F8F7F5" opacity="1.000000" stroke="none" 
	d="
M1126.457764,302.802490 
	C1126.906860,313.728607 1126.944580,324.441803 1126.865479,335.616180 
	C1126.302246,336.396240 1125.808960,336.506256 1124.945068,336.185303 
	C1123.805054,334.812012 1123.803711,333.501526 1123.903809,331.785156 
	C1124.081421,330.341248 1124.081543,329.293854 1123.753662,327.838348 
	C1123.406006,319.653412 1122.834351,311.880188 1124.223633,303.724487 
	C1124.853394,302.806458 1125.389282,302.564514 1126.457764,302.802490 
z"/>
<path fill="#F0E6CF" opacity="1.000000" stroke="none" 
	d="
M999.472900,595.956909 
	C999.142090,595.818115 999.182739,595.642822 999.251831,595.199280 
	C998.585388,593.983521 999.286194,593.384033 999.907471,592.927979 
	C1006.256592,588.267456 1012.979004,584.156067 1019.466492,579.697632 
	C1020.151611,579.226746 1021.008545,579.172668 1022.451965,579.668701 
	C1016.223083,586.666687 1008.741089,592.328857 999.472900,595.956909 
z"/>
<path fill="#F0E6CF" opacity="1.000000" stroke="none" 
	d="
M1056.418579,548.666260 
	C1054.289185,554.618530 1049.460327,558.246826 1044.200684,561.791138 
	C1043.106079,559.390137 1044.541992,558.034119 1045.896362,556.917175 
	C1049.275757,554.130371 1051.176514,549.637390 1056.418579,548.666260 
z"/>
<path fill="#F4E0B5" opacity="1.000000" stroke="none" 
	d="
M1126.946045,302.561523 
	C1126.395386,302.989655 1125.921631,302.963928 1125.092773,302.912354 
	C1121.426514,299.670166 1122.089478,296.166840 1124.365967,292.345093 
	C1125.212402,292.089050 1125.686035,292.061829 1126.514404,292.009644 
	C1126.920532,295.359039 1126.971680,298.733337 1126.946045,302.561523 
z"/>
<path fill="#F0E6CF" opacity="1.000000" stroke="none" 
	d="
M1034.428223,569.661743 
	C1033.869141,573.646484 1030.463501,574.946106 1027.217651,576.798218 
	C1027.092896,572.234375 1029.757080,570.068604 1034.428223,569.661743 
z"/>
<path fill="#F0E6CF" opacity="1.000000" stroke="none" 
	d="
M1064.351807,539.755249 
	C1063.579102,543.794678 1060.256226,545.990356 1057.355225,548.919556 
	C1057.031982,549.026978 1057.018433,549.015320 1057.011719,549.010193 
	C1056.163086,544.923279 1057.975342,542.325073 1064.351807,539.755249 
z"/>
<path fill="#F0E6CF" opacity="1.000000" stroke="none" 
	d="
M1041.406250,563.667114 
	C1040.194946,566.286194 1038.558716,568.765930 1035.397705,570.018860 
	C1035.049438,570.049500 1035.029053,570.028931 1035.018677,570.019043 
	C1034.206055,565.456665 1037.152832,564.090820 1041.406250,563.667114 
z"/>
<path fill="#F8F7F5" opacity="1.000000" stroke="none" 
	d="
M688.483582,685.845825 
	C693.079590,684.304688 698.184265,685.117676 703.606323,685.480957 
	C698.938232,685.802673 693.933044,685.897705 688.483582,685.845825 
z"/>
<path fill="#F8F7F5" opacity="1.000000" stroke="none" 
	d="
M705.482544,685.845825 
	C709.765442,684.357727 714.545105,684.999878 719.619202,685.583191 
	C715.256958,685.899292 710.591431,685.946045 705.482544,685.845825 
z"/>
<path fill="#F0E6CF" opacity="1.000000" stroke="none" 
	d="
M1009.117798,74.134644 
	C1009.026672,73.405365 1009.016357,73.039696 1009.003296,72.399635 
	C1011.424500,71.504578 1013.144043,72.842300 1014.996277,74.558975 
	C1014.299805,74.941917 1013.453430,74.993660 1012.184875,75.086411 
	C1010.694153,75.789268 1009.897156,75.344498 1009.117798,74.134644 
z"/>
<path fill="#F4E0B5" opacity="1.000000" stroke="none" 
	d="
M1069.550537,532.164856 
	C1069.791748,533.004517 1069.759277,533.613464 1069.726074,534.527710 
	C1068.784668,535.953491 1068.795654,537.991943 1066.125732,537.706665 
	C1065.540161,534.744324 1066.778320,532.913635 1069.550537,532.164856 
z"/>
<path fill="#F0E6CF" opacity="1.000000" stroke="none" 
	d="
M984.004639,56.565563 
	C981.839233,56.419182 979.223999,56.570782 978.010681,53.477959 
	C980.081543,53.877586 982.148499,54.730190 984.004639,56.565563 
z"/>
<path fill="#F8F7F5" opacity="1.000000" stroke="none" 
	d="
M752.491211,685.892700 
	C755.090088,684.431213 758.225708,685.034241 761.652100,685.617737 
	C758.948364,685.900757 755.941345,685.937683 752.491211,685.892700 
z"/>
<path fill="#F0E6CF" opacity="1.000000" stroke="none" 
	d="
M1027.083130,577.086975 
	C1026.302612,578.450378 1025.345337,579.607239 1023.388306,580.014648 
	C1023.058228,580.057983 1023.034790,580.034180 1023.022644,580.022827 
	C1021.978577,576.880310 1023.670227,576.283203 1026.637573,576.769043 
	C1027.016602,577.017944 1027.061157,577.063721 1027.083130,577.086975 
z"/>
<path fill="#F8F7F5" opacity="1.000000" stroke="none" 
	d="
M1075.014404,686.392090 
	C1077.257690,686.000183 1079.711304,685.974121 1082.619385,686.006226 
	C1080.607910,687.999207 1077.863281,686.780029 1075.014404,686.392090 
z"/>
<path fill="#F8F7F5" opacity="1.000000" stroke="none" 
	d="
M786.461548,685.907104 
	C788.065735,684.473572 790.241638,685.004822 792.687195,685.600464 
	C790.943420,685.880310 788.917358,685.925903 786.461548,685.907104 
z"/>
<path fill="#F4E0B5" opacity="1.000000" stroke="none" 
	d="
M1124.355347,336.059631 
	C1125.175659,335.990631 1125.626465,335.997192 1126.413086,336.040527 
	C1126.748779,336.077332 1126.836792,336.516449 1126.797852,336.735840 
	C1126.250366,337.562286 1125.741821,338.169373 1124.960693,338.893921 
	C1122.862305,338.441162 1123.197998,337.343353 1124.355347,336.059631 
z"/>
<path fill="#F8F7F5" opacity="1.000000" stroke="none" 
	d="
M795.626160,363.158386 
	C796.132812,364.902802 795.624878,366.106598 793.184326,365.978394 
	C792.351074,363.889191 794.605957,364.239105 795.626160,363.158386 
z"/>
<path fill="#F8F7F5" opacity="1.000000" stroke="none" 
	d="
M774.428955,685.890381 
	C775.727173,684.579041 777.578552,684.958313 779.702148,685.601624 
	C778.264526,685.875427 776.557617,685.920654 774.428955,685.890381 
z"/>
<path fill="#F8F7F5" opacity="1.000000" stroke="none" 
	d="
M737.466919,685.931702 
	C738.728027,684.433777 740.594421,684.969604 742.712524,685.580200 
	C741.281494,685.879395 739.583252,685.942078 737.466919,685.931702 
z"/>
<path fill="#F8F7F5" opacity="1.000000" stroke="none" 
	d="
M729.464844,685.931763 
	C730.729187,684.437805 732.588623,684.949036 734.690308,685.609314 
	C733.254883,685.907715 731.567932,685.956238 729.464844,685.931763 
z"/>
<path fill="#F8F7F5" opacity="1.000000" stroke="none" 
	d="
M659.449646,685.908203 
	C660.729919,684.542358 662.575562,684.969788 664.686768,685.600830 
	C663.259033,685.880310 661.563477,685.931580 659.449646,685.908203 
z"/>
<path fill="#F0E6CF" opacity="1.000000" stroke="none" 
	d="
M996.073792,63.618946 
	C994.704468,64.076775 993.468201,63.429947 992.201599,62.135231 
	C993.471680,61.942905 994.976929,61.864708 996.073792,63.618946 
z"/>
<path fill="#F8F7F5" opacity="1.000000" stroke="none" 
	d="
M682.465637,685.909119 
	C683.388611,684.562805 684.911072,684.962158 686.684814,685.499817 
	C685.585083,685.805298 684.225769,685.903503 682.465637,685.909119 
z"/>
<path fill="#F0E6CF" opacity="1.000000" stroke="none" 
	d="
M991.056946,60.629005 
	C989.922119,60.989681 988.556946,61.245159 988.076843,59.141861 
	C989.276672,58.791782 990.164185,59.434387 991.056946,60.629005 
z"/>
<path fill="#F0E6CF" opacity="1.000000" stroke="none" 
	d="
M1003.009277,67.567993 
	C1001.918518,68.124069 1000.989075,67.656349 1000.114929,66.386101 
	C1001.301880,65.548553 1002.062012,66.466507 1003.009277,67.567993 
z"/>
<path fill="#F0E6CF" opacity="1.000000" stroke="none" 
	d="
M976.088440,51.636639 
	C974.927612,52.078793 973.881958,51.674721 973.151978,50.101707 
	C974.282410,49.794090 975.173523,50.443115 976.088440,51.636639 
z"/>
<path fill="#F8F7F5" opacity="1.000000" stroke="none" 
	d="
M812.711731,129.101562 
	C812.951904,130.083282 812.589172,130.806351 811.186035,130.948975 
	C811.371704,130.331390 811.887146,129.708237 812.711731,129.101562 
z"/>
<path fill="#F0E6CF" opacity="1.000000" stroke="none" 
	d="
M1044.073364,562.076538 
	C1043.608276,562.694458 1043.124512,563.292542 1042.357422,563.978516 
	C1042.074219,564.066345 1042.039551,564.035339 1042.021973,564.020142 
	C1041.159058,562.549255 1041.747681,561.832825 1043.633545,561.802734 
	C1044.016602,562.017700 1044.054688,562.056641 1044.073364,562.076538 
z"/>
<path fill="#F8F7F5" opacity="1.000000" stroke="none" 
	d="
M782.379944,685.901367 
	C782.752197,684.993042 783.612000,684.920288 784.759277,685.630737 
	C784.217407,685.882507 783.480774,685.926208 782.379944,685.901367 
z"/>
<path fill="#F0E6CF" opacity="1.000000" stroke="none" 
	d="
M971.043213,48.615147 
	C970.285461,49.720654 970.098816,49.183826 970.083984,48.105972 
	C970.402954,48.026676 970.684021,48.199928 971.043213,48.615147 
z"/>
<path fill="#F8F7F5" opacity="1.000000" stroke="none" 
	d="
M779.644287,374.890442 
	C779.476074,375.187714 778.995117,375.567047 778.185059,375.931549 
	C778.089417,375.198151 778.630493,374.960266 779.644287,374.890442 
z"/>
<path fill="#F0E6CF" opacity="1.000000" stroke="none" 
	d="
M1006.069092,69.644913 
	C1005.588745,69.768700 1004.970642,69.589622 1004.203552,69.111198 
	C1004.680115,68.988586 1005.305786,69.165314 1006.069092,69.644913 
z"/>
<path fill="#F4E0B5" opacity="1.000000" stroke="none" 
	d="
M1126.926636,185.624420 
	C1126.222656,185.509705 1125.981079,185.002426 1126.674561,184.178955 
	C1126.912231,184.452881 1126.965698,184.882034 1126.926636,185.624420 
z"/>
<path fill="#F0E6CF" opacity="1.000000" stroke="none" 
	d="
M970.016846,47.584187 
	C969.541931,47.731659 968.939453,47.584644 968.192871,47.145996 
	C968.662170,46.999474 969.275757,47.144588 970.016846,47.584187 
z"/>
<path fill="#F8F7F5" opacity="1.000000" stroke="none" 
	d="
M776.642090,376.901123 
	C776.475037,377.201538 775.993164,377.574677 775.183960,377.932434 
	C775.088440,377.199860 775.626099,376.959381 776.642090,376.901123 
z"/>
<path fill="#F0E6CF" opacity="1.000000" stroke="none" 
	d="
M1016.037231,75.617340 
	C1015.271729,76.682579 1015.118286,76.108383 1015.084045,75.097870 
	C1015.393982,75.024963 1015.678406,75.198387 1016.037231,75.617340 
z"/>
<path fill="#F0E6CF" opacity="1.000000" stroke="none" 
	d="
M986.090942,57.645760 
	C985.613770,57.769798 984.984924,57.596359 984.207275,57.118454 
	C984.685425,56.992088 985.312378,57.170185 986.090942,57.645760 
z"/>
<path fill="#F0E6CF" opacity="1.000000" stroke="none" 
	d="
M1065.989502,538.009155 
	C1065.879395,538.622009 1065.769409,539.236755 1065.353271,539.946167 
	C1065.047363,540.040833 1065.030396,540.025391 1065.022705,540.019775 
	C1064.396851,539.279785 1064.556030,538.614258 1065.584229,538.004395 
	C1065.974121,538.017639 1065.989746,538.011108 1065.989502,538.009155 
z"/>
<path fill="#F0E6CF" opacity="1.000000" stroke="none" 
	d="
M1004.076660,68.666588 
	C1003.863708,68.735558 1003.559265,68.544731 1003.166016,68.092117 
	C1003.379822,68.022484 1003.682556,68.214638 1004.076660,68.666588 
z"/>
<path fill="#F0E6CF" opacity="1.000000" stroke="none" 
	d="
M966.109009,45.676559 
	C965.911194,45.811657 965.591614,45.680496 965.122375,45.333000 
	C965.310913,45.214550 965.649109,45.312428 966.109009,45.676559 
z"/>
<path fill="#F8F7F5" opacity="1.000000" stroke="none" 
	d="
M1131.056641,364.694214 
	C1130.855835,364.752502 1130.558716,364.550140 1130.155273,364.093628 
	C1130.352661,364.037476 1130.656372,364.235504 1131.056641,364.694214 
z"/>
<path fill="#F0E6CF" opacity="1.000000" stroke="none" 
	d="
M968.033020,46.651970 
	C967.825012,46.790222 967.517822,46.661026 967.070923,46.318253 
	C967.265381,46.197956 967.599609,46.291237 968.033020,46.651970 
z"/>
<path fill="#F8F7F5" opacity="1.000000" stroke="none" 
	d="
M771.685547,379.939270 
	C771.739441,380.135742 771.532288,380.437347 771.067322,380.850769 
	C771.014465,380.656494 771.219482,380.350464 771.685547,379.939270 
z"/>
<path fill="#F8F7F5" opacity="1.000000" stroke="none" 
	d="
M772.736572,379.081665 
	C772.891418,379.455688 772.662231,379.684784 772.082642,379.869751 
	C772.047485,379.637909 772.254272,379.341614 772.736572,379.081665 
z"/>
<path fill="#F8F7F5" opacity="1.000000" stroke="none" 
	d="
M774.685669,377.940277 
	C774.738464,378.137634 774.529785,378.439484 774.062073,378.851135 
	C774.010132,378.655548 774.217163,378.350159 774.685669,377.940277 
z"/>
<path fill="#F8F7F5" opacity="1.000000" stroke="none" 
	d="
M777.686218,375.939331 
	C777.744995,376.137573 777.546631,376.437836 777.092773,376.843750 
	C777.034607,376.646698 777.231812,376.344025 777.686218,375.939331 
z"/>
<path fill="#F8F7F5" opacity="1.000000" stroke="none" 
	d="
M1132.079590,365.696808 
	C1131.885010,365.754791 1131.576782,365.555023 1131.153564,365.098969 
	C1131.347656,365.041473 1131.656738,365.240265 1132.079590,365.696808 
z"/>
<path fill="#F8F7F5" opacity="1.000000" stroke="none" 
	d="
M782.721558,372.091949 
	C782.902405,372.449860 782.690918,372.693085 782.153442,372.954163 
	C782.096497,372.728912 782.263733,372.397308 782.721558,372.091949 
z"/>
<path fill="#F8F7F5" opacity="1.000000" stroke="none" 
	d="
M784.719421,371.091064 
	C784.760864,371.351257 784.522888,371.578888 784.042175,371.882294 
	C784.013000,371.658203 784.226440,371.358337 784.719421,371.091064 
z"/>
<path fill="#F8F7F5" opacity="1.000000" stroke="none" 
	d="
M789.685791,367.939117 
	C789.738831,368.136383 789.530762,368.438843 789.062744,368.850464 
	C789.010010,368.654510 789.217346,368.349396 789.685791,367.939117 
z"/>
<path fill="#F8F7F5" opacity="1.000000" stroke="none" 
	d="
M790.736572,367.081665 
	C790.891785,367.455994 790.662659,367.685089 790.082703,367.869781 
	C790.047485,367.637878 790.254272,367.341583 790.736572,367.081665 
z"/>
<path fill="#CE9A36" opacity="1.000000" stroke="none" 
	d="
M1124.711670,335.572754 
	C1123.916382,336.745880 1124.031860,337.652985 1124.501709,338.798950 
	C1124.669189,339.696259 1124.650391,340.381165 1124.597290,341.768219 
	C1124.124023,343.433014 1123.535645,344.225403 1121.995605,344.330383 
	C1111.388428,338.279510 1102.491821,330.534363 1093.610474,322.812805 
	C1087.863281,317.816132 1082.192261,312.726318 1077.442383,306.644104 
	C1074.819580,303.285583 1073.491943,299.938049 1073.512695,295.719452 
	C1073.677368,262.089264 1073.540161,228.458481 1073.604614,194.827942 
	C1073.616333,188.667465 1073.423340,182.505676 1073.559570,176.348007 
	C1073.648926,172.299866 1072.175415,169.465637 1068.558228,167.411118 
	C1043.683594,153.282303 1019.166077,138.533920 993.874878,124.431770 
	C992.878967,124.279961 992.241516,124.087868 991.519653,124.735512 
	C991.348877,125.420776 991.321838,125.836128 991.326660,126.596390 
	C992.490845,139.678741 994.640930,152.273285 996.879150,164.852798 
	C1000.113525,183.031204 1004.605835,200.904877 1010.470825,218.406219 
	C1019.337585,244.864609 1031.265015,269.779083 1047.689575,292.495483 
	C1061.106689,311.052460 1076.561890,327.604797 1094.153320,342.228149 
	C1101.948486,348.708099 1110.487793,354.162964 1118.814941,360.549377 
	C1119.116577,360.779205 1119.406128,361.026733 1119.580811,361.102570 
	C1120.349243,361.434265 1120.833374,361.869690 1121.680908,362.323914 
	C1122.168701,362.540558 1122.370850,362.611298 1122.760742,362.942566 
	C1122.948486,363.203064 1123.138428,363.416718 1123.267090,363.476776 
	C1128.418579,369.004517 1135.115112,372.145813 1141.142334,376.197083 
	C1177.320190,400.514160 1212.997681,425.483459 1243.567871,456.880096 
	C1270.713623,484.759796 1291.548950,516.677673 1304.444336,553.905396 
	C1307.069336,564.471069 1310.632690,574.486755 1312.790039,584.907898 
	C1316.089111,600.844666 1318.286255,616.884399 1319.320801,633.122498 
	C1320.271851,648.049316 1320.112671,662.981140 1320.109375,677.916443 
	C1320.109009,679.717102 1320.459961,681.585938 1319.266235,683.645020 
	C1318.559204,683.991577 1318.070557,683.977234 1317.217896,684.007935 
	C1316.235840,683.192200 1315.361938,683.553772 1314.357666,683.815369 
	C1288.381836,684.021362 1262.607910,683.985046 1236.360107,683.995483 
	C1235.537476,683.475830 1235.015381,683.490417 1234.284912,683.828186 
	C1231.340210,684.009949 1228.570312,683.980103 1225.340698,683.997253 
	C1224.754028,683.893372 1224.627075,683.742371 1224.309326,683.817505 
	C1222.336304,684.012329 1220.554321,683.981018 1218.328735,683.996094 
	C1216.876953,683.005798 1215.645630,683.623779 1214.306885,683.814453 
	C1184.392334,684.019043 1154.673828,683.995850 1124.497559,684.058716 
	C1124.040039,684.144653 1124.048584,683.979553 1124.034668,683.898071 
	C1122.816406,682.730713 1122.437012,681.270325 1122.437134,679.763916 
	C1122.437866,665.024109 1121.754639,650.278076 1122.968018,635.095703 
	C1124.484619,632.296387 1126.968994,632.801392 1129.503418,632.170532 
	C1130.588867,631.968384 1131.218506,631.950012 1132.315674,632.078613 
	C1135.236328,632.798401 1137.744019,632.551392 1140.229004,632.552490 
	C1178.972412,632.569519 1217.715942,632.569214 1256.459351,632.554321 
	C1259.781860,632.553040 1263.095459,632.649841 1266.734619,632.695435 
	C1268.714355,630.485291 1268.723022,628.220459 1268.315796,625.835510 
	C1265.883667,611.593201 1264.347046,597.168335 1260.307373,583.246094 
	C1254.196289,562.185730 1245.902100,542.066345 1233.276367,523.976868 
	C1216.449951,499.868896 1195.506348,479.782623 1172.624390,461.485352 
	C1158.300049,450.031036 1143.229858,439.662628 1128.282593,429.095520 
	C1108.881836,415.380066 1088.720215,402.784027 1069.053589,388.808258 
	C1055.896729,378.045593 1043.183472,367.328674 1031.816528,355.143188 
	C1016.574890,338.804138 1003.177002,321.104950 991.744690,301.851959 
	C981.953186,285.362274 973.966187,268.067932 966.832947,250.326065 
	C965.417114,246.804733 965.229370,242.799011 962.367188,239.649765 
	C959.193848,242.779922 958.573914,247.020737 957.116272,250.845627 
	C940.571899,294.257202 916.230042,332.526428 882.606445,364.775421 
	C868.876038,377.944366 854.285339,389.997040 838.343384,400.400818 
	C836.403015,401.667084 834.493347,403.025177 832.717468,405.087280 
	C831.713379,405.985779 830.839172,406.410980 829.624756,406.962433 
	C821.312622,411.596893 813.683472,416.618561 806.184814,422.458801 
	C803.563904,423.837769 799.852905,422.373657 798.769287,426.571167 
	C797.660706,428.288971 795.988892,428.828033 794.563721,430.226013 
	C773.059387,444.113251 753.108337,459.441223 734.077209,476.027924 
	C727.681702,481.601990 721.840942,487.696716 715.737061,493.543488 
	C714.049683,495.159760 712.539978,496.905975 711.267090,499.311096 
	C700.525574,509.495911 692.689941,521.394287 685.224426,533.619385 
	C669.346558,559.619934 661.225037,588.144897 657.188171,618.061523 
	C656.787537,621.030212 656.284485,623.968750 656.374146,627.342529 
	C656.383728,628.666931 656.340698,629.622253 656.418457,630.915894 
	C657.279114,634.240356 659.076355,633.556763 661.334778,632.327576 
	C662.463074,632.050842 663.232361,632.107483 664.381348,632.454956 
	C666.220215,633.611572 667.891174,633.620178 669.542603,633.559021 
	C678.926758,633.210938 688.346680,634.391052 698.068726,632.680420 
	C699.474243,631.953430 700.585144,631.765320 702.145142,631.732971 
	C703.103088,631.783569 703.634949,631.883789 704.523926,632.173950 
	C708.759094,634.314697 712.580078,632.303162 716.792664,632.064575 
	C717.417236,631.898743 717.671814,631.842468 718.317627,631.735352 
	C722.438416,631.533203 726.169067,631.605286 730.278320,631.646240 
	C730.901062,631.683533 731.144958,631.706848 731.740601,631.796143 
	C733.163025,632.082275 734.175720,632.684143 735.642517,632.288574 
	C736.579956,632.101807 737.210693,632.062439 738.155029,632.120911 
	C739.267273,632.299316 740.071228,632.429443 741.203674,632.159790 
	C741.741516,632.028137 741.962708,631.978455 742.528809,631.870728 
	C743.603943,631.716675 744.339172,631.687805 745.475342,631.631592 
	C746.153748,631.608948 746.430603,631.604187 747.133057,631.601746 
	C759.115295,632.207886 770.670105,631.175537 782.227051,631.567078 
	C785.704956,631.684875 789.194214,631.367493 793.111145,631.953979 
	C795.149109,633.046875 796.923218,633.702454 798.643311,635.302979 
	C799.829895,637.912598 799.709717,640.242859 799.715210,642.545166 
	C799.741516,653.598694 799.749695,664.652283 799.709717,675.705688 
	C799.700867,678.160828 799.941895,680.684998 798.171509,683.266113 
	C754.830017,683.562683 711.849060,683.511230 668.868164,683.474304 
	C649.376282,683.457581 629.884338,683.472839 610.392456,683.466614 
	C603.816895,683.464478 603.903809,683.451294 603.779541,676.704468 
	C603.472534,660.045959 603.600281,643.355042 604.998108,626.789734 
	C606.785889,605.602783 610.248352,584.634460 616.574829,564.184570 
	C622.644348,544.565552 630.561401,525.847351 641.030334,508.181946 
	C657.399658,480.560120 678.846008,457.334381 702.701904,436.098236 
	C728.870178,412.803650 757.733459,393.157806 786.736938,373.728394 
	C801.087524,364.114960 815.792297,354.986786 829.268921,344.185791 
	C840.699524,335.024506 851.180420,324.711212 860.960205,313.781158 
	C875.637146,297.378204 887.964783,279.290863 897.952698,259.689392 
	C903.817566,248.179855 908.416321,236.104523 912.835510,223.948959 
	C916.580933,213.646683 919.585144,203.134842 922.363525,192.580032 
	C923.995972,186.378555 925.426208,180.060669 926.756104,173.751587 
	C928.220886,166.803024 929.401489,159.769241 930.719116,152.815323 
	C932.283813,144.556931 932.852661,136.068573 934.342590,127.738823 
	C934.678528,125.860840 935.208313,123.153488 933.348999,122.161194 
	C931.550720,121.201477 929.924805,123.485130 928.051025,125.121941 
	C927.659424,126.038658 927.471802,126.245796 926.930420,126.682251 
	C926.316711,127.021965 926.056946,127.132347 925.385681,127.342072 
	C916.321899,131.025757 908.885071,136.740005 900.787476,141.301498 
	C886.166931,149.537399 871.772644,158.178726 857.121155,166.357941 
	C852.784363,168.778976 851.262390,171.614853 851.288879,176.597702 
	C851.497498,215.872513 851.390259,255.148972 851.431946,294.424866 
	C851.436096,298.341614 851.210510,302.085968 848.074219,305.418091 
	C847.725647,305.666321 847.737976,305.738037 847.701660,305.736084 
	C840.847534,313.584167 833.536255,320.927002 825.088745,327.584167 
	C824.788452,327.757629 824.936279,327.956940 824.848999,327.868774 
	C823.258545,329.730682 820.886597,330.683533 818.986389,332.646606 
	C818.672241,332.754730 818.341980,332.896606 818.206787,333.015076 
	C817.050415,333.841705 816.254089,334.807983 814.983765,335.662720 
	C814.689514,335.757385 814.354797,335.903168 814.216003,336.021759 
	C811.493225,339.186646 807.826721,340.748596 804.343933,343.126678 
	C800.804382,343.958618 799.888733,342.332153 799.936401,339.428619 
	C800.989136,275.319672 800.183533,211.205948 800.264832,147.094650 
	C800.271301,142.036713 801.908508,139.342758 806.149353,136.915817 
	C834.824402,120.505997 863.355957,103.845695 891.962097,87.315140 
	C915.114380,73.936180 938.305969,60.625351 961.728333,47.049717 
	C977.142090,56.292141 992.672913,65.141106 1008.682556,73.773743 
	C1009.745422,74.183571 1010.453796,74.596123 1011.462402,75.068039 
	C1016.318054,79.884529 1022.521545,82.032944 1028.031982,85.236511 
	C1058.427002,102.907097 1088.917725,120.413101 1119.401245,137.930954 
	C1122.226685,139.554672 1123.603027,141.471741 1123.576050,145.024872 
	C1123.526123,151.615128 1122.671265,158.263931 1124.431519,165.056122 
	C1124.719482,203.202927 1124.710449,241.113724 1124.719238,279.489777 
	C1124.937988,280.774261 1125.012451,281.599945 1124.796387,282.742798 
	C1124.723022,285.765625 1124.716431,288.482697 1124.724365,291.657990 
	C1123.587524,295.438843 1123.947266,298.809692 1124.577637,302.535278 
	C1124.723755,311.265961 1124.709961,319.645416 1124.714355,328.490173 
	C1124.828979,329.416504 1124.870117,329.882355 1124.796143,330.700134 
	C1124.724121,332.418549 1124.711426,333.790009 1124.711670,335.572754 
z"/>
<path fill="#98C066" opacity="1.000000" stroke="none" 
	d="
M1124.478760,632.936279 
	C1124.120605,649.852356 1124.070312,666.383789 1124.020386,683.365845 
	C1108.426392,683.682617 1092.846436,685.064697 1077.236328,684.095398 
	C1072.477417,683.799988 1072.089233,681.069153 1072.098389,677.363281 
	C1072.165527,650.230530 1072.151367,623.097656 1072.160156,595.964783 
	C1072.166382,576.988464 1072.146362,558.012146 1072.203247,539.036011 
	C1072.209717,536.897827 1072.684326,534.764587 1072.852661,532.621948 
	C1072.926025,531.688599 1073.097656,530.434021 1071.635864,530.473633 
	C1071.174194,530.486084 1070.735229,531.335327 1070.055176,532.098633 
	C1067.924072,533.558533 1067.084961,535.538513 1065.995239,537.679688 
	C1065.618652,538.480469 1065.263184,538.943298 1064.961426,539.710205 
	C1061.041626,541.525208 1058.716431,544.651367 1056.957520,548.645508 
	C1051.309082,551.692078 1047.919067,556.829102 1043.968628,561.668640 
	C1042.838135,561.668518 1042.290894,562.355530 1041.953857,563.654968 
	C1038.329590,564.006958 1036.862061,566.930481 1034.995728,569.659241 
	C1030.940063,570.364563 1029.110718,573.609131 1026.941528,576.668091 
	C1024.988770,576.563416 1023.794250,577.596069 1022.989380,579.648926 
	C1020.301392,579.534790 1018.863525,581.742188 1017.000366,582.953186 
	C1011.187988,586.731079 1005.458557,590.636658 999.488647,594.711792 
	C992.633545,597.186035 986.861389,601.213257 980.564636,604.170532 
	C967.256958,610.420349 953.959412,610.154358 940.836975,603.628967 
	C928.467041,597.477722 916.595520,590.371948 905.811707,581.793640 
	C891.781067,570.632568 878.009827,559.103149 866.335754,545.316956 
	C862.372620,540.636841 857.611511,536.627747 854.804199,531.015198 
	C854.039673,529.486755 852.772461,528.802856 851.090881,529.306274 
	C849.292053,529.844788 849.126221,531.326355 849.180847,532.919128 
	C850.834167,581.139954 849.565735,629.378174 850.110718,677.604736 
	C850.160828,682.034607 848.194763,683.705200 844.395264,683.921326 
	C839.760559,684.184937 835.107788,684.194275 830.462708,684.198730 
	C819.968689,684.208740 809.474609,684.147949 798.527222,684.201294 
	C798.073914,684.286621 797.896362,683.961670 797.853638,683.784912 
	C797.841675,667.511230 797.872437,651.414246 797.837769,634.808289 
	C797.656189,634.029358 797.540100,633.759460 797.395630,633.046753 
	C797.419189,632.311218 797.471069,632.018311 797.595215,631.282959 
	C798.634216,627.359558 797.514099,623.900574 797.520325,620.423279 
	C797.601807,574.761658 797.103271,529.091492 797.915833,483.444122 
	C798.112610,472.392639 796.713379,461.283844 798.407104,450.196747 
	C799.156250,445.293396 801.306763,441.792145 805.065857,439.039948 
	C810.165710,435.306061 815.595825,432.045441 821.069031,428.093018 
	C825.169678,426.273499 828.389709,423.861633 831.986938,421.270935 
	C832.627380,420.998596 832.894348,420.911011 833.579712,420.753418 
	C839.711121,420.415588 845.424072,420.149872 851.520691,420.855103 
	C854.695618,422.307037 855.138794,425.197113 855.785461,427.636749 
	C863.624878,457.211578 879.045410,482.760193 898.434875,505.890656 
	C914.341553,524.866455 933.242310,540.637390 954.907959,552.897095 
	C958.807373,555.103638 962.532593,555.594666 966.672791,553.196716 
	C996.579895,535.874817 1021.300903,513.049988 1040.027100,483.948517 
	C1049.492920,469.238007 1058.108398,454.044037 1063.581909,437.284943 
	C1065.233643,432.227448 1066.147461,426.931580 1068.745850,421.806091 
	C1069.237671,421.381775 1069.466675,421.247131 1070.076416,420.977661 
	C1075.750977,420.212982 1081.061523,420.560333 1086.365234,420.596436 
	C1091.023682,420.628174 1094.127441,424.079163 1098.278076,426.165710 
	C1107.670776,430.046844 1115.007080,436.404938 1123.164673,442.205536 
	C1123.865112,442.816345 1124.211304,443.225861 1124.712280,444.044006 
	C1125.551636,446.356812 1126.060547,448.319672 1125.759033,450.847748 
	C1125.297607,453.953217 1125.448730,456.621704 1125.448242,459.282990 
	C1125.438354,514.404663 1125.447998,569.526306 1125.420410,624.647949 
	C1125.419067,627.287537 1125.838379,629.986023 1124.478760,632.936279 
z"/>
<path fill="#000000" opacity="1.000000" stroke="none" 
	d="
M925.859497,126.192383 
	C926.405457,125.967751 926.586975,125.980347 927.021240,125.889938 
	C927.402344,125.647705 927.530762,125.508484 927.848022,125.157005 
	C928.036926,124.944748 928.030212,125.096924 928.106812,125.082550 
	C929.725769,124.923187 931.137451,124.771027 930.980164,127.133675 
	C930.828125,129.417419 930.981384,131.721497 930.973877,134.463440 
	C930.072937,136.266556 930.688171,137.794937 930.323975,139.572174 
	C927.482361,154.433502 925.058411,169.010162 921.958679,183.441650 
	C919.346985,195.601227 915.857361,207.561371 911.958740,219.393784 
	C908.348389,230.351166 903.871033,240.963989 898.856567,251.307816 
	C894.117126,261.084351 888.958496,270.704163 883.294739,279.971466 
	C878.746094,287.414368 873.184875,294.240692 868.023804,301.304749 
	C867.213379,302.413971 865.131653,302.225586 864.972717,304.479034 
	C864.593384,305.417938 863.968018,305.474121 863.123779,305.771423 
	C862.855835,305.914154 862.914124,305.938873 862.898987,305.910950 
	C857.649719,310.532440 857.649719,310.532440 850.936401,304.415436 
	C851.171265,260.996674 850.931641,217.938766 850.978516,174.881210 
	C850.982178,171.542542 852.159546,168.927826 854.982910,167.373795 
	C878.800598,154.264099 901.998657,140.090256 925.859497,126.192383 
z"/>
<path fill="#F8F7F5" opacity="1.000000" stroke="none" 
	d="
M930.417236,139.628143 
	C930.209656,138.359222 930.220276,136.798706 930.589050,135.074219 
	C930.843323,136.385681 930.739380,137.861099 930.417236,139.628143 
z"/>
<path fill="#F8F7F5" opacity="1.000000" stroke="none" 
	d="
M863.182617,305.935577 
	C863.090393,305.197968 863.629333,304.959839 864.645874,304.910828 
	C864.477722,305.216522 863.993591,305.586761 863.182617,305.935577 
z"/>
<path fill="#F4E0B5" opacity="1.000000" stroke="none" 
	d="
M804.014160,343.489624 
	C806.559204,340.130310 810.230286,338.532776 813.738525,336.201263 
	C812.672119,340.800690 807.968201,341.525665 804.381348,344.096558 
	C804.044250,344.207764 804.006042,343.729401 804.014160,343.489624 
z"/>
<path fill="#000000" opacity="1.000000" stroke="none" 
	d="
M1072.281616,303.501862 
	C1068.875000,304.953796 1065.388550,304.838715 1062.305176,307.123657 
	C1057.502441,306.391144 1055.616333,302.482941 1053.297607,299.457855 
	C1041.360229,283.883423 1030.275024,267.650421 1022.363647,249.657028 
	C1013.092102,228.570114 1006.046814,206.677704 1000.805847,184.180847 
	C996.397705,165.259216 993.745117,146.072571 990.740601,126.531517 
	C992.618713,122.993195 994.919434,124.379608 997.062988,125.719505 
	C1014.043701,136.333588 1031.587524,145.989365 1048.785645,156.229446 
	C1055.479004,160.214844 1062.351685,163.863159 1069.055908,167.816650 
	C1071.879272,169.481583 1073.352661,171.809036 1073.358887,175.126678 
	C1073.366577,179.274826 1073.350098,183.423553 1073.411133,187.966919 
	C1073.396851,190.233078 1073.376953,192.103943 1073.415894,194.380402 
	C1073.455078,195.600830 1073.473145,196.415817 1073.440430,197.640961 
	C1073.393799,199.694366 1073.373291,201.338104 1073.413330,203.396530 
	C1073.446777,204.366806 1073.453247,204.922852 1073.437134,205.899673 
	C1073.404419,208.016327 1073.387451,209.712387 1073.441162,211.839310 
	C1073.515259,214.890381 1073.486938,217.510834 1073.465576,220.573700 
	C1073.419434,223.099564 1073.407349,225.183029 1073.453369,227.717590 
	C1073.521240,232.106140 1073.489868,236.043823 1073.474731,240.435196 
	C1073.396851,245.415161 1073.420776,249.941620 1073.439697,254.918610 
	C1073.448120,255.668915 1073.450562,255.968689 1073.451172,256.717346 
	C1073.415161,259.848816 1073.396118,262.531433 1073.449097,265.662781 
	C1073.520142,269.418518 1073.489014,272.725769 1073.471191,276.488251 
	C1073.423096,279.086426 1073.410645,281.229401 1073.460205,283.839783 
	C1073.057739,290.587646 1074.484131,296.951202 1072.281616,303.501862 
z"/>
<path fill="#F0E6CF" opacity="1.000000" stroke="none" 
	d="
M1072.316162,221.347595 
	C1072.113892,218.296692 1072.063232,215.565384 1072.100342,212.385788 
	C1072.830200,210.198013 1072.409668,208.403427 1072.314697,206.332611 
	C1072.115723,205.569672 1072.065186,205.107529 1072.089233,204.302704 
	C1072.853394,202.208984 1072.403809,200.395508 1072.297607,198.310730 
	C1072.090576,197.248779 1072.043091,196.485687 1072.073975,195.346588 
	C1072.891235,192.898209 1072.375366,190.763245 1072.312622,188.339279 
	C1072.092896,183.378784 1071.721924,178.713821 1072.079834,174.105499 
	C1072.287476,171.432846 1070.520508,169.938934 1069.171387,169.246750 
	C1052.592407,160.740799 1037.030518,150.490250 1020.805847,141.408096 
	C1013.371277,137.246445 1006.543945,132.010513 998.533386,128.762512 
	C996.293274,127.854225 995.104248,124.420425 991.088013,125.843773 
	C990.382874,125.509674 990.317627,125.093864 990.327881,124.368599 
	C990.649048,123.552513 991.001953,123.153992 991.797180,122.860062 
	C1000.169556,125.502228 1007.010498,130.616959 1014.340576,134.771576 
	C1032.420654,145.019196 1050.226318,155.751816 1068.336914,165.944000 
	C1072.874756,168.497772 1074.552856,171.564270 1074.534302,176.632477 
	C1074.394409,214.783661 1074.729126,252.939041 1074.244263,291.084564 
	C1074.139282,299.348663 1076.548462,305.603424 1082.163696,311.029633 
	C1094.851074,323.289642 1108.167358,334.794189 1123.359863,344.611847 
	C1123.709961,343.882568 1124.042603,343.119202 1124.570068,342.088165 
	C1124.696777,341.800415 1124.713501,341.771179 1124.724365,341.757812 
	C1126.314453,343.067627 1126.409668,344.675079 1125.097778,346.076508 
	C1123.503296,347.779907 1122.245483,346.308899 1120.829468,345.379761 
	C1105.881226,335.570984 1092.262207,324.185394 1079.798462,311.370544 
	C1077.439087,308.944672 1076.210693,305.241882 1072.152588,304.111603 
	C1071.954834,297.520691 1071.968994,291.204254 1072.059448,284.422058 
	C1072.910889,281.897949 1072.366699,279.770142 1072.303833,277.362427 
	C1072.109009,273.664520 1072.076660,270.280426 1072.107788,266.439728 
	C1072.889404,263.251465 1072.371338,260.475037 1072.336914,257.366943 
	C1072.173706,256.839813 1072.143677,256.666718 1072.157349,256.233673 
	C1072.873169,251.268387 1072.378662,246.541229 1072.316895,241.435150 
	C1072.108276,236.989532 1072.048340,232.933731 1072.062500,228.416199 
	C1072.910645,225.893692 1072.365479,223.763367 1072.316162,221.347595 
z"/>
<path fill="#F4E0B5" opacity="1.000000" stroke="none" 
	d="
M990.339844,126.361038 
	C990.448120,125.925484 990.744507,125.943611 990.890381,125.971939 
	C993.587891,129.255508 993.642090,133.390442 993.909058,137.047668 
	C995.407104,157.578430 1000.763733,177.289185 1005.563293,197.161865 
	C1007.995544,207.232819 1011.000916,217.127487 1014.553101,226.765717 
	C1019.880127,241.219727 1025.592773,255.536575 1033.986938,268.709320 
	C1041.597656,280.652557 1049.686279,292.203979 1058.150146,303.528290 
	C1059.092407,304.788971 1061.418091,304.670105 1061.621094,307.052917 
	C1064.729370,312.912476 1069.459961,316.976868 1073.677734,321.472534 
	C1086.512695,335.153595 1101.103638,346.716370 1116.601807,357.196014 
	C1117.667847,357.916840 1118.989380,358.498169 1119.091553,360.436676 
	C1112.076782,358.000641 1106.388794,353.085114 1100.514771,348.585144 
	C1079.253418,332.297119 1060.725464,313.283325 1045.356689,291.323639 
	C1033.988892,275.080719 1024.555786,257.769196 1017.084900,239.342606 
	C1009.128174,219.717743 1003.006592,199.547699 998.488220,178.918488 
	C994.723145,161.728592 991.816956,144.355194 990.339844,126.361038 
z"/>
<path fill="#F4E0B5" opacity="1.000000" stroke="none" 
	d="
M1122.209229,362.688965 
	C1121.341309,362.534210 1120.655762,362.145111 1119.862793,361.467224 
	C1120.380615,361.277130 1121.005615,361.375885 1121.852661,361.713593 
	C1122.180298,362.119965 1122.286011,362.287323 1122.209229,362.688965 
z"/>
<path fill="#F0E6CF" opacity="1.000000" stroke="none" 
	d="
M1122.241455,363.045532 
	C1122.026855,362.923248 1122.045776,362.437958 1122.060181,362.195251 
	C1122.325806,362.195557 1122.577026,362.438538 1122.888428,362.942291 
	C1122.948486,363.203064 1122.455933,363.167816 1122.241455,363.045532 
z"/>
<path fill="#F4E0B5" opacity="1.000000" stroke="none" 
	d="
M925.836182,125.914276 
	C921.549927,130.968414 915.203735,133.467194 909.599365,137.090866 
	C900.265015,143.126312 890.624329,148.700912 881.006042,154.193207 
	C873.324036,158.579849 866.092529,163.913208 857.713379,167.118591 
	C853.643799,168.675400 851.960266,171.759750 851.972961,176.288712 
	C852.086304,216.717697 852.057922,257.147156 852.006470,297.576355 
	C852.004089,299.466217 852.760681,301.547211 851.057556,303.662781 
	C849.893433,304.455109 849.652466,305.884918 848.042175,305.747986 
	C850.046570,301.409271 849.973206,296.793549 849.966187,292.119751 
	C849.907959,253.014786 849.931335,213.909744 849.912415,174.804718 
	C849.911011,171.953735 849.793030,169.417664 852.949646,167.600845 
	C876.403442,154.101822 899.755798,140.426453 923.150024,126.823662 
	C923.860168,126.410736 924.679749,126.185921 925.836182,125.914276 
z"/>
<path fill="#F4E0B5" opacity="1.000000" stroke="none" 
	d="
M825.149292,327.805725 
	C827.731079,323.248657 832.523376,320.633972 836.076538,316.721771 
	C839.525269,312.924530 843.363403,309.481018 847.347961,305.808167 
	C847.614014,306.367798 847.816162,307.253052 847.473938,307.598022 
	C840.453430,314.673706 834.331482,322.733032 825.149292,327.805725 
z"/>
<path fill="#F4E0B5" opacity="1.000000" stroke="none" 
	d="
M819.042236,332.807922 
	C819.696533,330.260101 821.974792,329.167999 824.430176,327.841980 
	C824.263794,330.827454 821.754456,331.756317 819.042236,332.807922 
z"/>
<path fill="#F4E0B5" opacity="1.000000" stroke="none" 
	d="
M815.044922,335.810303 
	C815.207214,334.475220 816.049011,333.526642 817.741333,333.123505 
	C817.885193,334.732361 817.075439,335.721161 815.044922,335.810303 
z"/>
<path fill="#F4E0B5" opacity="1.000000" stroke="none" 
	d="
M1214.488037,684.054199 
	C1215.126099,683.100769 1216.272461,683.260864 1217.665405,683.843628 
	C1216.878540,684.050415 1215.871948,684.058350 1214.488037,684.054199 
z"/>
<path fill="#F4E0B5" opacity="1.000000" stroke="none" 
	d="
M1314.492920,684.065186 
	C1314.827271,683.262695 1315.636475,683.295837 1316.677979,683.860413 
	C1316.179321,684.059509 1315.504761,684.066040 1314.492920,684.065186 
z"/>
<path fill="#F4E0B5" opacity="1.000000" stroke="none" 
	d="
M1234.406128,684.051758 
	C1234.502808,683.446960 1235.010010,683.355652 1235.750977,683.869202 
	C1235.491577,684.049438 1235.096802,684.056580 1234.406128,684.051758 
z"/>
<path fill="#F4E0B5" opacity="1.000000" stroke="none" 
	d="
M1224.309082,684.052002 
	C1224.118408,684.043701 1224.366821,683.718933 1224.366821,683.718933 
	C1224.366821,683.718933 1224.765137,683.776367 1224.822998,683.910339 
	C1224.880981,684.044312 1224.499756,684.060364 1224.309082,684.052002 
z"/>
<path fill="#F4E0B5" opacity="1.000000" stroke="none" 
	d="
M1125.019043,282.878662 
	C1123.920410,282.256561 1124.010742,281.332397 1124.536621,280.164337 
	C1125.982178,280.654053 1126.105225,281.585968 1125.019043,282.878662 
z"/>
<path fill="#F4E0B5" opacity="1.000000" stroke="none" 
	d="
M1125.010498,330.911499 
	C1124.074829,330.574951 1124.060547,329.964386 1124.546509,329.121033 
	C1125.581299,329.360840 1126.028931,329.887726 1125.010498,330.911499 
z"/>
<path fill="#F0E6CF" opacity="1.000000" stroke="none" 
	d="
M1132.381958,633.220215 
	C1131.494141,633.338379 1131.089722,633.358215 1130.382690,633.347290 
	C1128.981323,632.810669 1127.545532,632.576782 1128.406372,630.492310 
	C1131.459717,628.972839 1134.323730,629.337891 1137.124634,629.335938 
	C1175.493652,629.309387 1213.862671,629.319275 1252.231689,629.318481 
	C1253.726562,629.318481 1255.221680,629.327454 1256.716431,629.315308 
	C1264.130615,629.255127 1264.322632,629.051392 1263.890991,621.307068 
	C1263.872803,619.510071 1264.326416,618.181030 1264.078003,616.431641 
	C1263.839966,615.063049 1263.768433,614.061646 1263.654785,612.697510 
	C1263.584106,611.376404 1263.610596,610.410278 1263.130615,609.152710 
	C1259.649536,600.257568 1259.166870,591.027527 1256.632080,582.226196 
	C1251.387329,564.016479 1243.831909,546.994019 1233.495361,531.194397 
	C1227.497437,522.026184 1221.598267,512.762634 1214.243408,504.561554 
	C1205.035889,494.294708 1194.706177,485.192932 1184.577881,475.879089 
	C1177.598755,469.461212 1169.998291,463.805878 1162.381592,457.619354 
	C1161.945801,457.245636 1161.777466,457.094238 1161.126099,456.500366 
	C1160.479980,455.922821 1160.316650,455.787750 1159.902100,455.464844 
	C1159.481689,455.157318 1159.312500,455.037598 1158.891113,454.739075 
	C1158.474121,454.438599 1158.308960,454.316895 1157.654785,453.821289 
	C1157.003052,453.319458 1156.840210,453.191559 1156.438965,452.860657 
	C1155.897461,452.366516 1155.617432,452.054474 1155.167969,451.472504 
	C1154.527832,450.512604 1153.941650,449.942841 1152.956299,449.360291 
	C1152.507568,449.121033 1152.328125,449.027466 1151.878662,448.801788 
	C1151.062378,448.430237 1150.505371,448.221863 1149.630859,448.014282 
	C1148.749146,447.767059 1148.218994,447.483093 1147.549805,446.854614 
	C1146.854858,445.994049 1146.334229,445.387909 1145.369019,444.786102 
	C1144.929565,444.471649 1144.759277,444.331635 1144.366089,443.938416 
	C1138.138794,438.467896 1131.564819,434.022522 1124.992554,429.576813 
	C1107.573486,417.793884 1090.028564,406.196594 1072.783569,394.157928 
	C1071.042480,392.942505 1069.087158,391.839172 1068.668457,388.843689 
	C1078.358887,393.314331 1086.604614,400.390442 1095.829224,405.971619 
	C1104.877075,411.445923 1113.994507,417.109283 1122.438110,423.174255 
	C1132.583862,430.461853 1142.853882,437.761017 1152.944702,445.202698 
	C1173.744629,460.542084 1193.666626,476.815887 1211.487183,495.578918 
	C1227.296753,512.224548 1240.510376,530.754089 1249.928467,551.667358 
	C1256.733887,566.779358 1261.578857,582.625305 1264.872559,598.995178 
	C1266.676880,607.963684 1266.912598,617.138550 1269.267212,625.988892 
	C1269.729126,627.725586 1269.786865,629.617432 1268.893066,631.691162 
	C1267.199707,633.667175 1265.297974,633.020935 1263.510498,633.022278 
	C1219.962036,633.054810 1176.413452,632.845886 1132.381958,633.220215 
z"/>
<path fill="#F0E6CF" opacity="1.000000" stroke="none" 
	d="
M961.821472,237.791931 
	C965.140015,238.804703 965.187927,242.066849 965.997253,244.431091 
	C977.659973,278.499146 994.983826,309.393890 1017.530945,337.400177 
	C1032.194946,355.614716 1049.057373,371.596985 1067.356201,386.102692 
	C1067.862915,386.504272 1068.266113,387.036438 1068.781006,387.835815 
	C1068.844482,388.163910 1068.747192,388.256714 1068.699463,388.303955 
	C1065.891357,389.333405 1064.056274,387.204956 1061.542847,386.214417 
	C1060.846069,385.924988 1060.470825,385.720428 1059.855225,385.311401 
	C1059.114136,384.768433 1058.631470,384.397980 1057.821045,383.974854 
	C1056.816772,383.457642 1056.194946,382.933563 1055.414307,382.118469 
	C1054.913574,381.599579 1054.617432,381.310944 1054.062256,380.835144 
	C1052.416504,379.580017 1051.192017,378.330444 1049.659912,376.920776 
	C1049.240967,376.546570 1049.073486,376.395264 1048.389160,375.791840 
	C1047.690796,375.193237 1047.509155,375.046722 1047.046143,374.685120 
	C1036.880127,366.967529 1028.956787,357.559784 1020.700012,348.392883 
	C1009.155457,335.575714 999.050476,321.818787 990.535217,306.871826 
	C981.221863,290.524109 971.968628,274.140717 965.826843,256.232422 
	C964.103149,251.206284 961.599548,246.423340 961.320679,240.598663 
	C961.112122,239.477737 961.215271,238.750580 961.821472,237.791931 
z"/>
<path fill="#F4E0B5" opacity="1.000000" stroke="none" 
	d="
M961.751831,237.511826 
	C962.061157,238.192032 962.039490,238.860413 962.039795,239.868484 
	C962.581909,244.636032 961.178040,248.760025 959.448181,252.620438 
	C948.700378,276.606018 937.960449,300.635010 922.505371,322.094635 
	C910.349304,338.973602 897.459351,355.245728 881.788940,369.135162 
	C870.218323,379.390808 858.954529,389.994659 845.883545,399.021851 
	C840.836975,400.707001 837.450195,405.166260 831.898621,405.008545 
	C836.796875,398.880981 843.842529,395.636230 849.929871,391.125153 
	C885.967712,364.419159 915.141541,331.689331 936.853638,292.445587 
	C946.195557,275.560333 953.732239,257.807953 960.253052,239.637222 
	C960.523926,238.882339 961.026245,238.210526 961.751831,237.511826 
z"/>
<path fill="#83B0CE" opacity="1.000000" stroke="none" 
	d="
M823.046143,427.589233 
	C818.996094,431.877716 814.363892,434.887451 809.597900,437.457520 
	C801.510559,441.818542 798.619812,448.670013 799.143555,457.218719 
	C799.651917,465.516876 799.289124,473.771820 799.221619,482.058411 
	C798.844482,528.346252 799.041809,574.638611 798.920776,620.929138 
	C798.910950,624.671814 800.655029,628.484802 798.432251,632.401306 
	C797.662659,632.275818 797.272583,631.822144 796.882446,630.825012 
	C796.269287,628.260010 796.414734,626.087341 796.414124,623.928162 
	C796.398254,566.822937 796.529785,509.717072 796.272644,452.612976 
	C796.232849,443.773529 800.089783,438.185577 807.079773,433.875763 
	C806.325500,433.261902 805.278442,433.669006 804.405151,433.282379 
	C803.424988,432.848480 802.562012,432.189972 802.497314,431.162140 
	C802.294800,427.944153 800.427307,430.484283 798.949463,430.185669 
	C797.518311,429.712433 797.353699,428.878357 797.710205,427.510468 
	C797.378052,421.382141 801.745178,422.473816 805.416504,421.938385 
	C806.317627,421.552948 806.825134,421.301880 807.773438,421.007080 
	C811.267578,420.392426 814.355652,420.378418 817.857056,420.886230 
	C820.995544,422.196411 822.586182,424.310669 823.046143,427.589233 
z"/>
<path fill="#F8F7F5" opacity="1.000000" stroke="none" 
	d="
M819.382080,422.435181 
	C815.591553,422.201324 812.260010,422.106567 808.474548,421.964844 
	C808.624878,418.728882 811.721924,417.903992 813.826172,416.524841 
	C818.766357,413.287018 823.598999,409.891174 828.817139,406.436554 
	C829.778137,405.790009 830.444702,405.338226 831.396851,404.791107 
	C836.606812,403.776978 839.825256,399.486389 844.912964,398.093445 
	C847.954529,401.044861 850.481140,404.221954 853.238403,407.560059 
	C852.505127,409.363556 850.783142,409.817474 849.667480,411.397888 
	C844.480530,415.506653 839.733704,419.705811 833.239319,421.758301 
	C832.774231,421.944489 832.600769,421.936737 832.186401,422.027832 
	C827.979065,424.126770 823.939697,424.150848 819.382080,422.435181 
z"/>
<path fill="#F4E0B5" opacity="1.000000" stroke="none" 
	d="
M656.108643,628.284180 
	C654.635559,620.447571 656.695801,612.992615 657.990601,605.526306 
	C661.357910,586.109985 666.671875,567.195923 675.401733,549.482117 
	C684.529419,530.961182 695.102478,513.315125 710.884888,499.313812 
	C710.979309,504.830292 706.622314,507.501282 703.793884,510.973083 
	C687.727417,530.694519 676.185425,552.640503 668.740601,576.990173 
	C664.743591,590.063049 662.641907,603.474121 659.611877,616.714783 
	C658.841553,620.080933 659.972107,623.730896 658.064880,627.332031 
	C657.482849,628.069580 657.031921,628.313721 656.108643,628.284180 
z"/>
<path fill="#F4E0B5" opacity="1.000000" stroke="none" 
	d="
M1132.262695,633.516235 
	C1133.557129,631.189148 1135.907471,632.099243 1137.944946,632.095825 
	C1181.217163,632.023254 1224.489380,632.016907 1268.196289,631.983643 
	C1268.873291,634.108765 1267.569214,634.466187 1265.855957,634.422302 
	C1222.275635,633.305603 1178.687500,634.241272 1135.104004,633.920715 
	C1134.277832,633.914612 1133.452515,633.785522 1132.262695,633.516235 
z"/>
<path fill="#F4E0B5" opacity="1.000000" stroke="none" 
	d="
M711.031555,499.027374 
	C710.744812,496.650085 712.565857,495.469788 713.902405,494.056732 
	C730.401245,476.614258 748.972839,461.564270 768.200073,447.297943 
	C776.333069,441.263397 784.445618,435.173096 793.799438,430.181885 
	C794.451355,430.519379 794.518311,430.723785 794.570190,431.252136 
	C794.473267,431.777313 794.391602,431.978546 794.097595,432.427490 
	C793.060181,433.380157 792.156555,433.992889 791.167725,435.027588 
	C781.766541,442.440521 771.953003,448.713440 762.765320,455.862518 
	C746.608032,468.434814 730.789856,481.374451 716.548523,496.133057 
	C715.161316,497.570709 713.986145,499.250580 711.384888,499.178284 
	C711.054077,499.047455 711.038818,499.034088 711.031555,499.027374 
z"/>
<path fill="#F8F7F5" opacity="1.000000" stroke="none" 
	d="
M655.584290,628.525146 
	C655.973755,628.178833 656.216858,628.150574 656.641357,628.076599 
	C660.352844,629.223694 663.993591,629.299255 667.662903,629.297546 
	C708.066650,629.278931 748.470337,629.275757 788.874084,629.304199 
	C791.672485,629.306152 794.551453,628.905701 797.583862,630.606079 
	C798.007812,631.288513 798.042297,631.673523 798.130737,632.337463 
	C798.184753,632.616455 798.010315,632.769836 797.904907,632.818542 
	C796.898254,633.894714 795.797607,634.016174 794.176758,633.378662 
	C778.126343,633.194275 762.472778,633.208679 746.405884,633.147339 
	C745.826172,632.939392 745.659790,632.807190 745.253723,632.884949 
	C744.254639,633.145447 743.495239,633.195923 742.359009,633.186462 
	C741.766296,632.809082 741.472168,632.620300 740.821777,632.663696 
	C740.211060,632.880066 739.859741,632.998108 739.236816,633.182434 
	C738.236267,633.289124 737.502502,633.315125 736.402832,633.308167 
	C735.437927,633.106079 734.824341,633.014038 733.911011,632.853271 
	C733.224121,632.632568 732.826172,632.588745 732.218323,632.897583 
	C727.649658,633.165588 723.279358,633.200867 718.445618,633.181641 
	C717.692627,632.704956 717.303833,632.536560 716.456543,632.760193 
	C714.227478,633.108521 712.330444,632.944458 710.091431,633.011719 
	C708.606628,633.134216 707.480774,633.369141 705.653076,633.286316 
	C704.535278,633.244568 704.094604,633.251648 703.329102,633.194275 
	C700.680908,631.476074 698.710938,632.952881 696.226074,633.897034 
	C685.384888,633.822693 674.984497,634.449585 664.170410,633.416870 
	C663.122314,633.236023 662.503357,633.257263 661.575317,633.256958 
	C659.255676,634.148254 657.424500,633.854126 655.603455,632.130249 
	C655.443054,630.852173 655.442078,629.861816 655.584290,628.525146 
z"/>
<path fill="#F4E0B5" opacity="1.000000" stroke="none" 
	d="
M1127.893066,630.621765 
	C1128.572998,631.648438 1129.187622,632.198608 1129.941284,633.032654 
	C1128.403931,634.290527 1126.641357,633.890259 1124.529541,633.481567 
	C1124.137329,573.015381 1124.103027,512.709778 1124.082886,452.404205 
	C1124.082642,451.748840 1124.267212,451.093414 1124.604248,450.077820 
	C1127.175415,451.584351 1125.957764,454.442749 1126.853027,457.199768 
	C1126.427979,499.766205 1126.500854,541.862549 1126.897827,583.950989 
	C1127.010742,595.909546 1128.013672,607.838684 1126.767456,619.799805 
	C1126.407104,623.259033 1126.536743,626.793823 1127.893066,630.621765 
z"/>
<path fill="#F4E0B5" opacity="1.000000" stroke="none" 
	d="
M663.960938,633.527222 
	C674.489929,633.084839 685.238586,632.954956 696.450134,632.817993 
	C697.496033,632.575256 698.097473,632.510681 699.045044,632.941162 
	C698.639282,634.352722 697.546448,634.580444 696.331360,634.578491 
	C686.217834,634.561890 676.104309,634.567261 665.991028,634.515381 
	C665.386414,634.512268 664.784119,634.074951 663.960938,633.527222 
z"/>
<path fill="#F4E0B5" opacity="1.000000" stroke="none" 
	d="
M828.756958,406.226532 
	C824.691223,412.111115 817.546753,414.331299 812.142944,418.889343 
	C811.006775,419.847687 809.681030,420.581299 808.231628,421.668152 
	C807.535217,421.932373 807.049805,421.946930 806.201355,421.911316 
	C812.643127,415.611420 820.652283,411.098114 828.756958,406.226532 
z"/>
<path fill="#F4E0B5" opacity="1.000000" stroke="none" 
	d="
M708.692139,632.304382 
	C711.352051,632.131287 713.704407,632.112610 716.496277,632.117249 
	C717.101746,632.324219 717.267639,632.507812 717.262695,633.020996 
	C713.158020,633.967896 709.230469,634.734802 705.104858,633.542358 
	C704.976013,633.237488 704.917664,633.046448 704.963440,632.957642 
	C706.076599,632.256836 707.264893,632.640442 708.692139,632.304382 
z"/>
<path fill="#F4E0B5" opacity="1.000000" stroke="none" 
	d="
M655.360596,632.177246 
	C657.182800,632.226379 658.921692,632.610291 660.963318,633.114746 
	C658.965515,635.513367 657.018738,634.862366 655.360596,632.177246 
z"/>
<path fill="#F4E0B5" opacity="1.000000" stroke="none" 
	d="
M797.609558,427.149475 
	C797.981201,427.868073 798.032898,428.625366 797.826050,430.000549 
	C796.602722,431.040924 795.647766,431.047394 794.406860,430.330017 
	C794.108948,430.109497 794.003357,430.002869 793.950317,429.949158 
	C794.488892,428.317474 795.964233,427.846802 797.609558,427.149475 
z"/>
<path fill="#F4E0B5" opacity="1.000000" stroke="none" 
	d="
M793.935120,633.465332 
	C794.851990,633.074158 795.924133,632.968384 797.397827,632.864929 
	C797.876953,633.188171 797.884827,633.510803 797.797607,634.067200 
	C796.465210,634.651794 795.181885,634.844910 793.935120,633.465332 
z"/>
<path fill="#F0E6CF" opacity="1.000000" stroke="none" 
	d="
M699.732178,633.304199 
	C698.826660,633.160217 698.280457,633.055176 697.323608,632.880493 
	C698.740601,631.636841 700.632935,631.778870 702.779907,632.831421 
	C702.033386,633.200867 701.062439,633.272034 699.732178,633.304199 
z"/>
<path fill="#F4E0B5" opacity="1.000000" stroke="none" 
	d="
M732.815430,632.416504 
	C733.939270,632.319397 734.814209,632.498291 735.862976,632.976196 
	C735.253906,634.075378 734.329529,633.967285 733.143250,633.521118 
	C732.794006,633.132874 732.680237,632.912659 732.815430,632.416504 
z"/>
<path fill="#F4E0B5" opacity="1.000000" stroke="none" 
	d="
M1124.409912,341.990631 
	C1125.142700,342.856506 1124.780396,343.730927 1123.913086,344.641846 
	C1123.240845,343.803131 1123.470581,342.960724 1124.409912,341.990631 
z"/>
<path fill="#F4E0B5" opacity="1.000000" stroke="none" 
	d="
M739.132141,633.447021 
	C739.419739,632.895630 739.869446,632.528137 740.628845,632.145752 
	C741.102844,632.314270 741.267273,632.497742 741.259583,633.008240 
	C740.562500,633.875122 739.961792,633.955627 739.132141,633.447021 
z"/>
<path fill="#F4E0B5" opacity="1.000000" stroke="none" 
	d="
M991.860962,122.577728 
	C991.684814,123.166183 991.309998,123.549065 990.669312,123.995544 
	C990.086670,122.947296 990.164246,122.129654 991.860962,122.577728 
z"/>
<path fill="#F4E0B5" opacity="1.000000" stroke="none" 
	d="
M927.964966,125.133133 
	C928.010925,125.238182 927.890015,125.485092 927.474121,125.736198 
	C927.426697,125.560745 927.633057,125.405609 927.964966,125.133133 
z"/>
<path fill="#F0E6CF" opacity="1.000000" stroke="none" 
	d="
M717.324219,633.333862 
	C717.068054,633.148193 717.044250,632.945801 716.978149,632.442017 
	C717.223633,632.308899 717.511475,632.477234 717.890686,632.886353 
	C717.982117,633.127136 717.556641,633.317200 717.324219,633.333862 
z"/>
<path fill="#F0E6CF" opacity="1.000000" stroke="none" 
	d="
M732.819580,632.218201 
	C733.036377,632.341919 733.008362,632.543335 732.944031,633.048950 
	C732.907776,633.353027 732.444214,633.319092 732.232056,633.224731 
	C732.204895,632.852173 732.389893,632.574036 732.819580,632.218201 
z"/>
<path fill="#F0E6CF" opacity="1.000000" stroke="none" 
	d="
M741.319946,633.320679 
	C741.064941,633.133911 741.042358,632.932495 740.979126,632.430969 
	C741.226013,632.301392 741.513550,632.471924 741.891602,632.884521 
	C741.982178,633.126526 741.552368,633.306152 741.319946,633.320679 
z"/>
<path fill="#F0E6CF" opacity="1.000000" stroke="none" 
	d="
M745.260376,633.162903 
	C745.150024,632.669800 745.331787,632.340271 745.917480,632.885254 
	C745.830566,633.124695 745.668701,633.177795 745.260376,633.162903 
z"/>
<path fill="#F8F7F5" opacity="1.000000" stroke="none" 
	d="
M1126.191040,456.714355 
	C1124.549072,454.844391 1125.382202,452.632385 1124.936646,450.141602 
	C1124.604980,448.082886 1124.367310,446.448120 1124.069214,444.453278 
	C1123.787598,443.820343 1123.548218,443.564178 1123.083252,443.163971 
	C1115.333130,437.950775 1107.793213,432.895996 1099.923584,427.799011 
	C1096.779053,426.438385 1100.040894,425.086243 1099.304932,423.428589 
	C1091.132202,424.346161 1085.050781,419.266327 1078.623291,415.031799 
	C1072.757202,411.167053 1072.565430,411.235809 1071.418091,417.965607 
	C1071.197998,419.256958 1071.255249,420.637878 1069.852783,421.737305 
	C1069.516479,421.829224 1069.030151,421.785370 1068.794556,421.849304 
	C1068.296265,421.885773 1068.033447,421.858368 1067.524170,421.521210 
	C1065.966309,416.040192 1067.219238,410.935150 1068.536133,406.106567 
	C1070.078613,400.450623 1068.717896,396.161896 1065.044067,392.021606 
	C1063.341797,390.103088 1060.866089,388.655640 1060.685913,385.385315 
	C1063.761108,384.810425 1065.430298,387.522461 1068.335449,388.199707 
	C1073.724731,394.614288 1080.750244,398.488586 1087.288940,402.760712 
	C1096.544678,408.807922 1105.505737,415.252045 1114.656982,421.422394 
	C1123.843628,427.616669 1133.138916,433.654938 1142.190186,440.056152 
	C1143.374390,440.893677 1145.047729,441.222565 1144.991943,443.511017 
	C1142.063965,445.775635 1138.881836,444.257507 1135.830811,444.512695 
	C1129.613525,445.032593 1128.987305,445.505890 1128.454468,451.736023 
	C1128.299683,453.544525 1128.295410,455.411224 1126.191040,456.714355 
z"/>
<path fill="#83B0CE" opacity="1.000000" stroke="none" 
	d="
M1067.831543,421.787994 
	C1068.118530,422.014832 1068.315430,421.845764 1068.437256,421.879486 
	C1068.706299,427.172821 1066.532837,431.940552 1064.950562,436.726868 
	C1059.885132,452.049591 1052.303833,466.130096 1043.880615,479.929169 
	C1032.867188,497.971771 1019.461792,513.692688 1003.806091,527.800415 
	C992.659851,537.844604 980.532898,546.321106 967.758362,554.058533 
	C963.201416,556.818604 959.151855,556.700378 954.744019,554.163940 
	C941.045227,546.281189 928.558838,536.852356 916.763184,526.294312 
	C906.325623,516.951965 896.664734,506.931061 888.626404,495.597473 
	C878.486450,481.300598 869.053894,466.479797 862.304626,450.137451 
	C858.652161,441.293243 855.648926,432.265045 853.261475,422.636292 
	C853.398682,422.048767 853.540039,421.839050 854.030273,421.478394 
	C854.886230,421.247162 855.385193,421.281616 856.205200,421.613281 
	C859.177246,425.374298 859.812195,429.800415 860.984741,433.849670 
	C868.405579,459.477386 882.473633,481.277252 899.062378,501.711731 
	C913.136780,519.048767 929.959778,533.309753 948.398865,545.740112 
	C951.284119,547.685181 954.627014,548.890808 957.663879,550.632690 
	C960.016663,551.982239 962.432739,551.613770 964.828369,550.420288 
	C975.477417,545.115234 984.890625,538.010620 994.065735,530.539062 
	C1016.437256,512.321289 1033.892578,490.005341 1048.183228,465.140503 
	C1052.985840,456.784027 1056.702393,447.827545 1059.417480,438.554596 
	C1060.821899,433.758148 1063.014893,429.234955 1064.028931,424.310669 
	C1064.379028,422.610443 1065.405273,421.237030 1067.831543,421.787994 
z"/>
<path fill="#CE9A36" opacity="1.000000" stroke="none" 
	d="
M1070.024170,421.862183 
	C1071.536133,408.742035 1071.708130,408.500671 1082.492920,416.185150 
	C1088.510498,420.472748 1094.596802,423.372803 1102.127808,421.806458 
	C1102.489258,424.658508 1099.295044,424.967224 1099.519653,427.447754 
	C1099.100220,427.764374 1098.386475,427.990753 1098.145020,427.747803 
	C1090.206299,419.761353 1080.006104,422.542053 1070.024170,421.862183 
z"/>
<path fill="#CE9A36" opacity="1.000000" stroke="none" 
	d="
M854.692627,421.565979 
	C854.305481,421.997406 854.094788,422.047455 853.570740,422.177979 
	C846.802124,422.144531 840.346863,422.030579 833.419678,421.934448 
	C838.119995,418.427307 843.292358,414.902405 848.724121,411.158020 
	C851.005249,409.324738 852.552246,409.493103 853.318604,412.172241 
	C854.160828,415.116577 855.507996,417.982513 854.692627,421.565979 
z"/>
<path fill="#CE9A36" opacity="1.000000" stroke="none" 
	d="
M819.105164,422.553497 
	C822.959045,422.218842 826.994995,422.141602 831.488159,422.095520 
	C829.644409,424.735474 827.042725,426.915680 823.269165,427.963867 
	C822.181396,425.912903 820.625244,424.438171 819.105164,422.553497 
z"/>
<path fill="#F4E0B5" opacity="1.000000" stroke="none" 
	d="
M1122.987549,443.255859 
	C1123.199341,443.182404 1123.525635,443.359253 1123.930420,443.814636 
	C1123.706665,443.897491 1123.404541,443.701813 1122.987549,443.255859 
z"/>
<path fill="#F8F7F5" opacity="1.000000" stroke="none" 
	d="
M1072.082642,241.500916 
	C1073.781006,245.750534 1072.845093,250.548782 1072.445312,255.646149 
	C1072.133057,251.301315 1072.065063,246.628906 1072.082642,241.500916 
z"/>
<path fill="#F8F7F5" opacity="1.000000" stroke="none" 
	d="
M1072.101807,257.452271 
	C1073.609131,259.734253 1072.823975,262.572266 1072.410156,265.680450 
	C1072.114136,263.285980 1072.057129,260.588806 1072.101807,257.452271 
z"/>
<path fill="#F8F7F5" opacity="1.000000" stroke="none" 
	d="
M1072.068237,277.475037 
	C1073.581909,279.072784 1072.984741,281.255341 1072.386230,283.687439 
	C1072.088867,281.938019 1072.041992,279.919739 1072.068237,277.475037 
z"/>
<path fill="#F8F7F5" opacity="1.000000" stroke="none" 
	d="
M1072.083862,188.449738 
	C1073.520264,190.061722 1072.984131,192.242386 1072.388916,194.690308 
	C1072.104614,192.940216 1072.057129,190.909866 1072.083862,188.449738 
z"/>
<path fill="#F8F7F5" opacity="1.000000" stroke="none" 
	d="
M1072.089355,221.456360 
	C1073.484863,223.072281 1073.010864,225.248947 1072.386353,227.686371 
	C1072.095825,225.931213 1072.054932,223.907959 1072.089355,221.456360 
z"/>
<path fill="#F8F7F5" opacity="1.000000" stroke="none" 
	d="
M1072.069946,198.433334 
	C1073.480103,199.709427 1072.977539,201.571609 1072.392334,203.690399 
	C1072.109863,202.258270 1072.055908,200.556534 1072.069946,198.433334 
z"/>
<path fill="#F8F7F5" opacity="1.000000" stroke="none" 
	d="
M1072.087769,206.448944 
	C1073.443726,207.722977 1073.004150,209.562714 1072.409302,211.667130 
	C1072.128296,210.247040 1072.068726,208.556564 1072.087769,206.448944 
z"/>
<path fill="#000000" opacity="1.000000" stroke="none" 
	d="
M1125.761353,457.242645 
	C1128.099243,454.014709 1126.778809,450.834076 1126.765869,447.797943 
	C1126.755981,445.499268 1127.122559,443.941864 1130.122681,443.697540 
	C1134.828125,443.314301 1139.482544,442.083160 1144.565674,443.868652 
	C1145.156128,443.918427 1145.325684,443.968658 1145.760376,444.008087 
	C1146.601318,444.524994 1147.356812,444.873779 1147.821533,445.915344 
	C1148.133179,446.957184 1148.684570,447.023590 1149.635498,446.957520 
	C1150.393921,447.449524 1151.018066,447.497437 1151.764893,447.937317 
	C1151.954590,448.171661 1151.960693,448.063507 1151.906982,448.070435 
	C1153.017334,449.025970 1154.395264,449.660645 1155.774170,450.845947 
	C1156.028076,451.419220 1156.188965,451.676819 1156.688477,451.938263 
	C1157.177002,452.236511 1157.436523,452.466858 1157.813232,452.935730 
	C1157.940674,453.162903 1157.949463,453.056580 1157.896484,453.062622 
	C1158.145142,453.187012 1158.405029,453.366119 1158.817383,453.743958 
	C1159.011719,453.881958 1159.396362,454.040741 1159.604492,454.041504 
	C1160.125122,454.225647 1160.412231,454.442657 1160.815308,454.924469 
	C1160.956909,455.155426 1160.961670,455.045929 1160.907227,455.051819 
	C1161.044556,455.187958 1161.236450,455.318207 1161.709106,455.653992 
	C1175.399414,465.698090 1187.607422,476.918182 1199.911255,488.074249 
	C1203.990601,491.773102 1207.519897,496.100708 1212.091675,499.534210 
	C1215.630005,502.191559 1218.880127,507.044617 1221.703491,511.342255 
	C1227.468018,520.116638 1233.586548,528.677307 1238.970581,537.678162 
	C1245.214233,548.115967 1250.589722,558.949097 1254.210083,570.742371 
	C1256.266724,577.441711 1258.218750,584.205566 1260.312866,590.908020 
	C1261.217407,593.802979 1262.115723,597.000916 1261.761963,599.908508 
	C1261.358398,603.225769 1264.692749,605.094482 1264.073486,608.599121 
	C1264.653076,609.797852 1264.384155,610.729004 1264.794922,611.843994 
	C1264.984863,613.161682 1264.992065,614.205078 1265.082275,615.630981 
	C1265.539429,616.738342 1265.488647,617.515625 1265.291504,618.648743 
	C1265.425659,621.570862 1265.587524,624.158508 1266.033325,626.696167 
	C1266.668213,630.310547 1265.168945,631.066711 1261.741089,631.049927 
	C1234.107422,630.914673 1206.473022,630.978027 1178.838745,630.975525 
	C1162.191284,630.973999 1145.543823,630.963135 1128.427246,631.027344 
	C1125.802612,630.852051 1124.829102,629.728516 1124.913818,627.480713 
	C1125.032715,624.325745 1124.608887,621.119873 1125.007080,618.011353 
	C1126.370728,607.367004 1125.321167,596.773193 1125.177002,586.128418 
	C1124.614136,544.564697 1124.942139,502.988800 1124.965454,461.417450 
	C1124.966064,460.150879 1124.497192,458.725037 1125.761353,457.242645 
z"/>
<path fill="#F8F7F5" opacity="1.000000" stroke="none" 
	d="
M1155.950806,450.736328 
	C1154.328369,450.889740 1152.823242,450.425232 1151.916138,448.439819 
	C1153.599976,448.155640 1155.135620,448.605499 1155.950806,450.736328 
z"/>
<path fill="#F8F7F5" opacity="1.000000" stroke="none" 
	d="
M1147.946533,445.840515 
	C1147.447754,445.602509 1146.929932,445.030029 1146.218750,444.227417 
	C1146.875122,444.228241 1147.820068,444.339294 1147.946533,445.840515 
z"/>
<path fill="#F8F7F5" opacity="1.000000" stroke="none" 
	d="
M1265.354614,618.810425 
	C1265.100098,618.255005 1265.063110,617.504395 1265.095703,616.383606 
	C1266.005371,616.770508 1266.110352,617.642578 1265.354614,618.810425 
z"/>
<path fill="#F8F7F5" opacity="1.000000" stroke="none" 
	d="
M1264.987549,611.778564 
	C1263.653442,611.727356 1264.059570,610.627930 1264.071045,609.364258 
	C1264.976685,609.626709 1264.999634,610.528381 1264.987549,611.778564 
z"/>
<path fill="#F8F7F5" opacity="1.000000" stroke="none" 
	d="
M1151.815674,447.885498 
	C1151.339233,447.993866 1150.723877,447.816101 1150.023071,447.322510 
	C1150.517334,447.204254 1151.096924,447.401794 1151.815674,447.885498 
z"/>
<path fill="#F8F7F5" opacity="1.000000" stroke="none" 
	d="
M1157.850586,452.906586 
	C1157.640015,452.960541 1157.339355,452.758148 1156.973755,452.285858 
	C1157.192749,452.227356 1157.476685,452.438812 1157.850586,452.906586 
z"/>
<path fill="#F8F7F5" opacity="1.000000" stroke="none" 
	d="
M1158.881348,453.669403 
	C1158.691528,453.782501 1158.371216,453.683044 1157.947266,453.326111 
	C1158.184570,453.107635 1158.487061,453.237061 1158.881348,453.669403 
z"/>
<path fill="#F8F7F5" opacity="1.000000" stroke="none" 
	d="
M1160.843750,454.900055 
	C1160.649048,454.956665 1160.341187,454.757874 1159.922974,454.300690 
	C1160.118652,454.243073 1160.424683,454.443878 1160.843750,454.900055 
z"/>
<path fill="#F8F7F5" opacity="1.000000" stroke="none" 
	d="
M1161.859131,455.656158 
	C1161.674927,455.764008 1161.360107,455.668549 1160.948975,455.315369 
	C1161.178345,455.114563 1161.470215,455.246277 1161.859131,455.656158 
z"/>
<path fill="#000000" opacity="1.000000" stroke="none" 
	d="
M1068.090698,421.567535 
	C1066.813599,421.984741 1065.800293,422.500885 1065.479736,423.803192 
	C1063.388672,432.296356 1060.494141,440.513947 1057.353516,448.671478 
	C1053.390991,458.963501 1047.777344,468.293091 1042.125244,477.723297 
	C1036.045288,487.867706 1028.404419,496.754761 1021.441284,506.168457 
	C1017.541443,511.440887 1012.187256,515.620361 1007.636475,520.432434 
	C1000.994629,527.455627 993.378235,533.469299 985.784607,539.243225 
	C979.069702,544.348877 971.923706,549.369507 963.891174,552.576721 
	C961.898193,553.372498 959.887268,553.320007 957.763550,552.230774 
	C945.971924,546.182800 935.528259,538.294922 925.267029,529.955750 
	C916.868225,523.130188 909.001587,515.635254 902.027893,507.649597 
	C894.654785,499.206665 887.691284,490.136688 881.676453,480.451111 
	C876.336182,471.851532 871.354004,463.088165 866.779968,454.084717 
	C864.840088,450.266205 863.392456,446.091583 862.227295,442.069855 
	C860.346436,435.577576 857.516602,429.389496 855.988281,422.393982 
	C854.854187,417.607086 853.366028,413.303497 852.746948,408.428955 
	C849.895874,405.234558 846.466919,402.817444 845.154541,398.362183 
	C856.780334,390.755646 866.518433,381.227539 876.688171,372.397980 
	C884.897766,365.270355 892.777161,357.510559 899.828186,348.971039 
	C910.430298,336.130615 920.858276,323.217255 929.574280,309.006256 
	C936.207520,298.191071 942.113770,287.012756 947.409607,275.449371 
	C951.362610,266.818024 955.609802,258.317505 959.137573,249.493210 
	C960.250427,246.709549 961.096985,243.819397 962.063599,240.593079 
	C964.114258,249.782974 968.431091,258.545929 971.840027,267.638000 
	C976.068542,278.916321 982.330261,289.134979 988.032227,299.656982 
	C993.457947,309.669189 999.359314,319.389771 1005.981628,328.631439 
	C1009.597351,333.677216 1013.899841,338.235779 1017.955688,342.959961 
	C1023.512390,349.432220 1028.825684,356.154633 1034.826660,362.189819 
	C1038.827759,366.213684 1042.643799,370.654205 1048.005371,373.673706 
	C1048.304565,374.273895 1048.490601,374.522247 1048.822754,374.948944 
	C1048.930542,375.156006 1048.941895,375.057587 1048.892578,375.063110 
	C1049.145142,375.186951 1049.405029,375.366058 1049.817383,375.743927 
	C1051.421143,377.194916 1052.830566,378.507874 1054.543945,379.927856 
	C1055.155762,380.229706 1055.429565,380.465057 1055.814331,380.968140 
	C1056.394531,381.763550 1056.834351,382.325806 1057.536865,382.966919 
	C1058.335693,383.391174 1058.958618,383.498688 1059.756592,383.923615 
	C1059.951904,384.508179 1060.097290,384.769897 1060.626953,384.990601 
	C1062.001709,387.679504 1064.354492,389.503174 1066.210449,391.415802 
	C1070.129883,395.455048 1071.816895,399.291931 1070.151611,404.967590 
	C1068.629517,410.154877 1067.887451,415.623108 1068.090698,421.567535 
z"/>
<path fill="#F8F7F5" opacity="1.000000" stroke="none" 
	d="
M1059.804932,383.867188 
	C1059.339355,383.986115 1058.717651,383.811584 1057.947754,383.341400 
	C1058.416016,383.221741 1059.032349,383.397736 1059.804932,383.867188 
z"/>
<path fill="#F8F7F5" opacity="1.000000" stroke="none" 
	d="
M1049.881104,375.669434 
	C1049.691406,375.782471 1049.371216,375.682983 1048.947266,375.326050 
	C1049.184448,375.107849 1049.486938,375.237274 1049.881104,375.669434 
z"/>
<path fill="#F8F7F5" opacity="1.000000" stroke="none" 
	d="
M1055.850342,380.940002 
	C1055.650024,380.989685 1055.345337,380.778076 1054.944092,380.300659 
	C1055.147095,380.249481 1055.446533,380.464111 1055.850342,380.940002 
z"/>
<path fill="#F8F7F5" opacity="1.000000" stroke="none" 
	d="
M1048.869751,374.920837 
	C1048.636353,374.950439 1048.342163,374.744843 1048.102295,374.268066 
	C1048.473999,374.131927 1048.691406,374.361511 1048.869751,374.920837 
z"/>
<path fill="#000000" opacity="1.000000" stroke="none" 
	d="
M797.975830,630.440796 
	C752.092224,630.930298 706.211121,630.963074 660.330017,630.954773 
	C658.931824,630.954529 656.700623,631.892517 656.897461,628.496094 
	C656.877930,626.414124 658.199829,625.165894 658.031555,623.370850 
	C657.292847,615.489441 660.432373,608.137817 661.429443,600.473450 
	C662.703430,590.680054 665.914124,581.258240 669.002136,571.875305 
	C671.788635,563.408813 675.345032,555.257996 678.938049,547.093811 
	C684.285156,534.944214 692.192505,524.509216 699.812378,513.862610 
	C703.300964,508.988373 707.277039,504.462982 711.043091,499.413452 
	C716.150635,496.836700 718.880371,491.901459 722.739807,488.342072 
	C729.313049,482.279907 736.034180,476.434753 742.777466,470.567780 
	C751.549011,462.936157 760.703857,455.824890 769.905640,448.764557 
	C776.549988,443.666382 783.512695,438.983185 790.657410,433.979980 
	C791.911804,433.451538 792.708374,432.823425 793.870972,432.231812 
	C794.146423,432.109467 794.037109,432.051270 794.071960,432.102448 
	C794.885071,430.877838 796.189392,430.635162 797.783875,430.239136 
	C798.059265,430.056793 798.069031,430.126709 798.103394,430.134491 
	C799.356018,429.346436 800.709656,428.695587 801.757812,427.717438 
	C803.024841,426.535126 804.190979,427.234528 804.713318,428.058197 
	C805.958191,430.020935 803.536682,428.397095 803.287109,429.291656 
	C803.051636,430.135437 802.831116,430.914948 803.305603,431.644745 
	C803.730713,432.298401 804.180237,432.574310 805.256287,432.367645 
	C807.729187,431.892822 810.303101,431.944000 812.925354,431.775940 
	C812.552551,433.508575 811.284790,433.582214 810.023071,434.063904 
	C802.251648,437.030792 797.971375,443.384399 797.971802,451.560730 
	C797.975098,511.033173 797.976440,570.505615 797.975830,630.440796 
z"/>
<path fill="#F4E0B5" opacity="1.000000" stroke="none" 
	d="
M852.531067,408.088348 
	C854.614380,412.242828 856.866150,416.325806 855.914001,421.594879 
	C855.534058,422.023499 855.239197,422.008240 854.730347,421.968201 
	C853.777710,418.783600 852.913147,415.642090 852.348572,412.447601 
	C852.016052,410.566498 851.137939,410.409027 849.323547,410.952148 
	C849.149292,408.963684 850.767578,408.656342 852.531067,408.088348 
z"/>
<path fill="#F0E6CF" opacity="1.000000" stroke="none" 
	d="
M797.663330,430.018860 
	C797.424988,431.461212 795.908813,431.430542 794.452698,432.106995 
	C794.081543,431.698029 794.056274,431.242462 794.069946,430.448181 
	C795.161743,430.066620 796.214539,430.023773 797.663330,430.018860 
z"/>
<path fill="#F0E6CF" opacity="1.000000" stroke="none" 
	d="
M793.821655,432.083923 
	C793.573059,433.092957 792.989075,434.062622 791.310486,433.940674 
	C791.524231,432.833191 792.271790,432.109558 793.821655,432.083923 
z"/>
<path fill="#F0E6CF" opacity="1.000000" stroke="none" 
	d="
M708.643555,632.110718 
	C708.087830,633.169312 706.878296,632.943848 705.364746,632.901428 
	C705.908936,631.809692 707.127869,632.062866 708.643555,632.110718 
z"/>
</svg>